<svg width="142" height="48" viewBox="0 0 142 48" fill="none" xmlns="http://www.w3.org/2000/svg">
<g clip-path="url(#clip0_347_4840)">
<path d="M138.136 47.9299H3.06343C1.40564 47.9299 0.0617676 46.5905 0.0617676 44.9383V3.05539C0.0617676 1.40309 1.40564 0.0636749 3.06343 0.0636749H138.136C139.794 0.0636749 141.138 1.40309 141.138 3.05539V44.9383C141.138 46.5905 139.794 47.9299 138.136 47.9299Z" fill="#131313"/>
<path d="M31.2051 17.8146C32.3372 17.8146 33.1143 17.894 33.4931 18.2984C33.8672 18.695 34.0556 19.5561 34.0719 20.9308C32.4685 20.9976 29.4163 20.9932 27.8866 20.8347C28.0038 18.3946 28.1722 17.8146 31.2051 17.8146ZM26.5157 18.1787C26.1749 18.9708 25.9715 20.2882 25.9715 21.6982C25.9715 24.0169 26.3866 25.4091 27.3163 26.2146C28.2695 27.0422 29.8119 27.1558 31.3364 27.1558C32.8009 27.1558 33.6865 27.0324 35.2943 26.8076L35.4198 26.7909L35.4358 25.1756L35.3572 25.1898C35.3377 25.1932 33.3195 25.5424 31.2488 25.5424C29.8509 25.5424 28.9246 25.2955 28.4945 24.8144C27.9464 24.2107 27.8593 23.3207 27.8557 22.4421C28.3001 22.4544 30.8623 22.5302 32.2789 22.5302C33.5738 22.5302 35.8393 22.3646 35.8624 22.3627L35.9198 22.3583L35.9234 22.3011C35.9239 22.2913 35.9786 21.3166 35.9786 20.9581C35.9786 19.1673 35.7346 18.0922 35.1616 17.3617C34.3548 16.3756 32.6426 16.2425 31.0741 16.2425C29.1391 16.2425 27.2475 16.477 26.5157 18.1787ZM39.6404 13.1441C38.9486 13.8129 38.6264 14.8607 38.6264 16.4407C38.6264 18.1901 39.0733 19.2194 40.0763 19.7763C40.9929 20.2882 42.3244 20.3536 43.8655 20.4267L44.4168 20.4549C45.892 20.5289 46.8226 20.5897 47.3324 20.9139C47.7922 21.2065 47.9544 21.7256 47.9544 22.9002C47.9544 23.9233 47.7462 24.4909 47.236 24.8576C46.7259 25.2232 45.8537 25.3872 44.4071 25.3872C42.1812 25.3872 38.9407 24.9817 38.9407 24.9817L38.9305 26.7909C38.9305 26.7909 41.7038 27.1558 44.4297 27.1558C46.6891 27.1558 48.0061 26.8509 48.8323 26.1362C49.6551 25.4258 49.9907 24.3791 49.9907 22.5294C49.9907 20.7879 49.5292 19.7075 48.5358 19.126C47.642 18.6025 46.4116 18.5338 44.9854 18.4544L43.5937 18.3673L43.3196 18.3504C41.3699 18.2297 40.6402 18.1856 40.6402 16.4612C40.6402 15.4803 40.7345 14.829 41.216 14.4017C41.7196 13.9548 42.67 13.7548 44.2975 13.7548C46.5415 13.7548 49.2622 14.0968 49.2622 14.0968L49.2639 12.3774L49.2064 12.3703C49.1754 12.3668 46.1875 12.01 44.232 12.01C41.7399 12.01 40.495 12.3166 39.6404 13.1441ZM54.8913 24.9995C54.5067 24.4944 54.4367 23.4907 54.4367 21.6982C54.4367 19.9076 54.5067 18.9056 54.8913 18.3989C55.2657 17.9046 56.0198 17.8146 57.371 17.8146C58.7211 17.8146 59.4758 17.9046 59.851 18.3989C60.2348 18.9056 60.3042 19.9076 60.3042 21.6982C60.3042 23.4907 60.2348 24.4944 59.851 24.9995C59.4758 25.4937 58.7211 25.5837 57.371 25.5837C56.0198 25.5837 55.2657 25.4937 54.8913 24.9995ZM53.4085 17.322C52.66 18.1856 52.5092 19.6371 52.5092 21.6982C52.5092 23.7612 52.66 25.2136 53.4085 26.0771C54.1843 26.9724 55.5548 27.1558 57.371 27.1558C59.1874 27.1558 60.5562 26.9724 61.3328 26.0771C62.0813 25.2136 62.2316 23.7612 62.2316 21.6982C62.2316 19.6371 62.0813 18.1856 61.3328 17.322C60.5562 16.4276 59.1874 16.2425 57.371 16.2425C55.5548 16.2425 54.1843 16.4276 53.4085 17.322ZM72.3441 16.3739C72.3441 16.3739 72.3396 25.1033 72.3396 25.2021C71.9507 25.3017 70.8091 25.5625 69.6243 25.5625C67.3794 25.5625 67.0399 25.2161 67.0399 22.9215V16.3739H65.1796V23.184C65.1796 24.8267 65.4227 25.7379 66.0221 26.3247C66.6224 26.9152 67.5527 27.1558 69.229 27.1558C69.7419 27.1558 70.4731 27.0579 70.7835 27.0165L70.9063 27.0006C71.084 26.9795 71.284 26.9046 71.6128 26.7663C71.9506 26.6226 72.1479 26.4931 72.1557 26.4887C72.2495 26.4243 72.329 26.3715 72.405 26.3715C72.4723 26.3715 72.4925 26.3715 72.5182 26.5187L72.5209 26.5169C72.5209 26.531 72.5933 27.0033 72.5933 27.0033H74.207L74.2008 16.3739H72.3441ZM81.1567 16.3545L80.9444 16.3747C80.7084 16.395 80.123 16.6778 80.0036 16.7465C79.8445 16.8374 79.4961 17.0066 79.4138 17.0066C79.3459 17.0066 79.3247 17.0066 79.2999 16.8585C79.3006 16.8594 79.2247 16.3739 79.2247 16.3739H77.6403V27.0033H79.5005V18.1609C79.9268 18.0711 81.1753 17.8359 82.3689 17.8359C83.605 17.8359 84.1875 17.9591 84.513 18.2923C84.8349 18.6219 84.9525 19.2079 84.9525 20.4549V27.0245H86.8144V20.1922C86.8144 18.5699 86.5633 17.6341 85.9744 17.0611C85.3884 16.4875 84.4272 16.2425 82.7632 16.2425C82.2813 16.2425 81.5519 16.3156 81.1567 16.3545ZM92.132 24.8267C91.7472 24.3022 91.5988 23.4255 91.5988 21.6982C91.5988 19.971 91.7491 19.0915 92.1399 18.561C92.5235 18.0412 93.1646 17.8359 94.4238 17.8359C95.3602 17.8359 96.5025 17.9566 97.2266 18.064V25.158C96.8172 25.2629 95.6157 25.5424 94.4238 25.5424C93.1682 25.5424 92.5051 25.3343 92.132 24.8267ZM97.2168 11.987C97.2168 11.987 97.2247 16.3879 97.2266 16.5395C96.8189 16.4664 95.4573 16.2425 93.9631 16.2425C92.2363 16.2425 91.0744 16.7704 90.4105 17.8526C89.758 18.9135 89.6713 20.3931 89.6713 21.6982C89.6713 23.0255 89.757 24.5235 90.3954 25.5837C91.0302 26.6411 92.1416 27.1558 93.7879 27.1558C94.6015 27.1558 95.1523 27.0748 95.4812 27.028L95.6882 26.9998C95.933 26.976 96.4953 26.6808 96.5297 26.6631C96.6121 26.6288 96.7146 26.5804 96.8154 26.5302C96.9436 26.4667 97.1373 26.3733 97.1824 26.3715C97.2805 26.3715 97.2955 26.3855 97.3177 26.5187L97.3928 27.0033H99.0806L99.0877 11.987H97.2168ZM18.6162 13.7336C20.02 13.7336 20.8248 13.9186 21.2231 14.3356L21.227 14.3399C21.6678 14.7788 21.7044 15.431 21.7044 16.1782C21.7044 16.9105 21.6678 17.5547 21.227 17.9936C20.8256 18.4139 20.02 18.6008 18.6162 18.6008H14.0834V13.7336H18.6162ZM12.1116 11.987V27.0033H14.0798C14.0798 27.0033 14.0834 20.4522 14.0834 20.3252C14.2049 20.3252 17.1491 20.3244 17.2164 20.3244C17.2553 20.3808 21.7204 27.0033 21.7204 27.0033H24.1341L19.648 20.3747C19.648 20.3747 19.6263 20.3271 19.6881 20.3271C19.9104 20.3271 20.6232 20.2849 21.5552 19.9578C22.0838 19.7702 22.4587 19.4748 22.7782 19.1348C23.4114 18.4342 23.7187 17.4745 23.7187 16.1993C23.7187 14.6326 23.3839 13.598 22.6656 12.9431C21.9472 12.292 20.8146 11.987 19.0983 11.987H12.1116ZM21.5223 14.0473C21.5223 14.0473 21.5236 14.0481 21.5242 14.0492L21.5211 14.0446C21.5214 14.0456 21.5218 14.0465 21.5223 14.0473ZM13.3228 35.9543H12.3146C12.1785 35.9543 12.0682 35.8444 12.0682 35.7088V33.2093C12.0682 33.0737 12.1785 32.9638 12.3146 32.9638H13.3228C13.4589 32.9638 13.5692 33.0737 13.5692 33.2093V35.7088C13.5692 35.8444 13.4589 35.9543 13.3228 35.9543ZM18.3764 35.9543H17.2038C17.0613 35.9543 16.946 35.8392 16.946 35.6972V33.221C16.946 33.079 17.0613 32.9638 17.2038 32.9638H18.3764C18.5189 32.9638 18.6343 33.079 18.6343 33.221V35.6972C18.6343 35.8392 18.5189 35.9543 18.3764 35.9543ZM23.4298 35.9543H22.0933C21.9443 35.9543 21.8235 35.8339 21.8235 35.6855V33.2326C21.8235 33.0842 21.9443 32.9638 22.0933 32.9638H23.4298C23.5788 32.9638 23.6996 33.0842 23.6996 33.2326V35.6855C23.6996 35.8339 23.5788 35.9543 23.4298 35.9543ZM28.4834 35.9543H26.9825C26.8271 35.9543 26.7011 35.8287 26.7011 35.6739V33.2443C26.7011 33.0894 26.8271 32.9638 26.9825 32.9638H28.4834C28.6388 32.9638 28.7649 33.0894 28.7649 33.2443V35.6739C28.7649 35.8287 28.6388 35.9543 28.4834 35.9543ZM33.5369 35.9543H31.8719C31.71 35.9543 31.5788 35.8235 31.5788 35.6622V33.2559C31.5788 33.0947 31.71 32.9638 31.8719 32.9638H33.5369C33.6988 32.9638 33.83 33.0947 33.83 33.2559V35.6622C33.83 35.8235 33.6988 35.9543 33.5369 35.9543ZM38.5903 35.9543H36.7612C36.5929 35.9543 36.4564 35.8182 36.4564 35.6504V33.2678C36.4564 33.0999 36.5929 32.9638 36.7612 32.9638H38.5903C38.7587 32.9638 38.8953 33.0999 38.8953 33.2678V35.6504C38.8953 35.8182 38.7587 35.9543 38.5903 35.9543ZM43.6439 35.9543H41.6506C41.4758 35.9543 41.3341 35.813 41.3341 35.6387V33.2794C41.3341 33.1051 41.4758 32.9638 41.6506 32.9638H43.6439C43.8187 32.9638 43.9604 33.1051 43.9604 33.2794V35.6387C43.9604 35.813 43.8187 35.9543 43.6439 35.9543ZM48.6973 35.9543H46.54C46.3586 35.9543 46.2117 35.8078 46.2117 35.6271V33.2911C46.2117 33.1104 46.3586 32.9638 46.54 32.9638H48.6973C48.8788 32.9638 49.0257 33.1104 49.0257 33.2911V35.6271C49.0257 35.8078 48.8788 35.9543 48.6973 35.9543ZM53.7509 35.9543H51.4293C51.2416 35.9543 51.0892 35.8025 51.0892 35.6154V33.3027C51.0892 33.1156 51.2416 32.9638 51.4293 32.9638H53.7509C53.9386 32.9638 54.0909 33.1156 54.0909 33.3027V35.6154C54.0909 35.8025 53.9386 35.9543 53.7509 35.9543ZM58.8043 35.9543H56.3187C56.1244 35.9543 55.967 35.7973 55.967 35.6038V33.3145C55.967 33.1209 56.1244 32.9638 56.3187 32.9638H58.8043C58.9987 32.9638 59.1561 33.1209 59.1561 33.3145V35.6038C59.1561 35.7973 58.9987 35.9543 58.8043 35.9543ZM63.8579 35.9543H61.2198C61.019 35.9543 60.8562 35.7921 60.8562 35.592V33.3262C60.8562 33.1261 61.019 32.9638 61.2198 32.9638H63.8579C64.0587 32.9638 64.2213 33.1261 64.2213 33.3262V35.592C64.2213 35.7921 64.0587 35.9543 63.8579 35.9543ZM116.46 35.9543H66.607C66.24 35.9543 65.9425 35.6578 65.9425 35.2921V33.6261C65.9425 33.2603 66.24 32.9638 66.607 32.9638H116.46C116.827 32.9638 117.125 33.2603 117.125 33.6261V35.2921C117.125 35.6578 116.827 35.9543 116.46 35.9543ZM128.293 22.3997C128.067 22.3997 127.845 22.312 127.68 22.1467L120.767 15.257C120.665 15.155 120.49 15.2273 120.49 15.3717V21.5069C120.49 21.9828 120.116 22.3909 119.639 22.3995C119.152 22.4085 118.756 22.0182 118.756 21.5356V12.9202C118.756 12.6171 118.901 12.3254 119.159 12.1642C119.5 11.9487 119.95 11.9985 120.236 12.2832L127.148 19.1728C127.25 19.2749 127.426 19.2026 127.426 19.0583V12.923C127.426 12.4472 127.799 12.039 128.276 12.0304C128.763 12.0215 129.16 12.4117 129.16 12.8943V21.5091C129.16 21.8208 129.005 22.1195 128.736 22.2784C128.602 22.3578 128.449 22.3997 128.293 22.3997ZM116.154 16.3509H113.586C113.108 16.3509 112.696 16.7241 112.688 17.2011C112.681 17.6847 113.072 18.079 113.555 18.079H115.073C115.192 18.079 115.289 18.1758 115.289 18.2952V20.4554C115.289 20.5748 115.192 20.6714 115.073 20.6714V20.6716H111.888C109.871 20.6716 108.245 19.026 108.359 17.0188C108.461 15.2037 109.975 13.7584 111.821 13.7584H116.125C116.604 13.7584 117.016 13.3852 117.023 12.908C117.031 12.4246 116.64 12.0303 116.156 12.0303H111.9C109.11 12.0303 106.755 14.1895 106.625 16.9676C106.486 19.9384 108.87 22.3997 111.821 22.3997H116.154C116.634 22.3997 117.023 22.0116 117.023 21.5331V17.2175C117.023 16.7388 116.634 16.3509 116.154 16.3509Z" fill="white"/>
</g>
<defs>
<clipPath id="clip0_347_4840">
<rect width="141.176" height="48" fill="white"/>
</clipPath>
</defs>
</svg>
