<svg width="151" height="30" viewBox="0 0 151 30" fill="none" xmlns="http://www.w3.org/2000/svg">
<g id="MED-EL_Logo " clip-path="url(#clip0_347_4789)">
<g id="layer1">
<g id="g3011">
<g id="Clip path group">
<mask id="mask0_347_4789" style="mask-type:luminance" maskUnits="userSpaceOnUse" x="-1" y="-1" width="151" height="32">
<g id="clipPath3015">
<path id="path3017" d="M-0.0103302 -0.75293H149.767V30.3978H-0.0103302" fill="white"/>
</g>
</mask>
<g mask="url(#mask0_347_4789)">
<g id="g3013">
<path id="path3019" d="M98.5892 14.0245C100.139 13.126 100.989 12.3605 101.802 11.3488C101.201 11.5604 100.565 11.6701 99.9312 11.6701C97.8502 11.6701 96.0373 10.64 94.8619 8.92377C94.0542 7.74584 93.8042 6.45688 93.8042 5.20035C93.8079 3.33348 94.67 1.67017 96.0047 0.596191C91.0677 1.18625 87.2372 5.39776 87.2372 10.507C87.2372 12.9138 88.0884 15.121 89.5029 16.8451C92.6922 16.5834 95.8635 15.6049 98.5892 14.0245Z" fill="#131313"/>
<path id="path3021" d="M105.64 5.21313C105.676 5.58387 105.678 6.014 105.678 6.21503C105.678 10.6464 102.257 13.9906 99.4223 15.5923C97.8321 16.4908 94.8982 17.8676 91.1166 18.4136C92.7991 19.7147 94.9072 20.4886 97.1964 20.4886C102.697 20.4886 107.156 16.0196 107.156 10.5071C107.156 8.56239 106.6 6.74767 105.64 5.21313Z" fill="#131313"/>
<path id="path3023" d="M99.5473 1.00439C97.2906 1.00874 95.456 2.89047 95.456 5.20033C95.456 7.50875 97.2906 9.38993 99.5491 9.3941C101.804 9.38993 103.639 7.50875 103.639 5.20033C103.639 2.89047 101.804 1.00874 99.5473 1.00439Z" fill="#131313"/>
<path id="path3025" d="M134.029 29.4011V2.17822H137.249V26.8726H149.702V29.4011H134.029Z" fill="#131313"/>
<path id="path3027" d="M113.933 29.4011V2.17822H130.033V4.62809H117.075V14.2339H126.929V16.6838H117.075V26.9116H130.227V29.4011H113.933Z" fill="#131313"/>
<path id="path3029" d="M66.5093 6.26092H62.9034V25.2779H66.5093C69.4197 25.2779 75.1228 25.8616 75.1228 15.7889C75.1228 5.75581 69.4197 6.26092 66.5093 6.26092ZM65.812 29.4011H57.3162V2.17818H65.812C70.7002 2.17818 81.0976 1.59446 81.0976 15.7889C81.0976 29.9451 70.7002 29.4011 65.812 29.4011Z" fill="#131313"/>
<path id="path3031" d="M35.085 29.4011V2.17822H53.0474V6.3776H40.7501V13.4168H49.3637V17.5392H40.7501V25.2003H53.3191V29.4011H35.085Z" fill="#131313"/>
<path id="path3033" d="M30.3925 2.17822V29.4011H24.8832L25.3486 6.33866H24.7673L18.2872 29.4011H11.9248L5.75623 6.33866H5.09702L5.29077 29.4011H0.596436V2.17822H9.98515L15.3007 22.8281H15.6883L21.2755 2.17822H30.3925Z" fill="#131313"/>
</g>
</g>
</g>
</g>
</g>
</g>
<defs>
<clipPath id="clip0_347_4789">
<rect width="150.298" height="30" fill="white"/>
</clipPath>
</defs>
</svg>
