<svg width="162" height="28" viewBox="0 0 162 28" fill="none" xmlns="http://www.w3.org/2000/svg">
<g clip-path="url(#clip0_347_4821)">
<path d="M50.6686 20.6096V27.4795H28.391V0.624512H50.1505V7.39031H37.302V10.6171H48.5963V17.0706H37.302V20.6096H50.6686Z" fill="#131313"/>
<path d="M70.7703 27.4795L66.2111 20.2974L61.652 27.4795H51.3939L61.0303 13.9479L51.8084 0.624512H61.8592L66.4183 7.39031L70.8739 0.624512H80.5102L71.2883 13.5316L81.1319 27.4795H70.7703Z" fill="#131313"/>
<path d="M109.108 26.2304C106.829 24.9813 105.067 23.3159 103.72 21.2341C102.373 19.1523 101.752 16.6542 101.752 14.052C101.752 11.3456 102.373 8.95159 103.72 6.8698C105.067 4.78802 106.829 3.0185 109.108 1.87352C111.388 0.62445 113.978 0.104004 116.88 0.104004C119.781 0.104004 122.371 0.728539 124.651 1.87352C126.931 3.12259 128.692 4.78802 130.039 6.8698C131.386 8.95159 132.008 11.4497 132.008 14.052C132.008 16.7583 131.386 19.1523 130.039 21.2341C128.692 23.3159 126.931 25.0854 124.651 26.2304C122.371 27.4795 119.781 27.9999 116.88 27.9999C113.978 27.9999 111.388 27.4795 109.108 26.2304ZM119.885 19.881C120.817 19.3605 121.542 18.5278 122.061 17.591C122.579 16.5501 122.889 15.4051 122.889 14.052C122.889 12.6988 122.579 11.5538 122.061 10.5129C121.542 9.47203 120.817 8.74341 119.885 8.22296C118.952 7.70252 118.019 7.39025 116.88 7.39025C115.74 7.39025 114.704 7.70252 113.875 8.22296C112.942 8.74341 112.217 9.57612 111.699 10.5129C111.181 11.5538 110.87 12.6988 110.87 14.052C110.87 15.4051 111.181 16.5501 111.699 17.591C112.217 18.6319 112.942 19.3605 113.875 19.881C114.807 20.4014 115.74 20.7137 116.88 20.7137C118.019 20.7137 118.952 20.5055 119.885 19.881Z" fill="#131313"/>
<path d="M161.538 0.624512V27.4795H154.182L144.027 15.3011V27.4795H135.22V0.624512H142.577L152.731 12.803V0.624512H161.538Z" fill="#131313"/>
<path d="M83.8259 0.624512L78.7487 7.59849H84.8621V27.4795H93.8768V7.59849H101.648V0.624512H83.8259Z" fill="#131313"/>
<path d="M19.998 19.1522C21.6559 18.3195 22.8993 17.1745 23.7282 15.7173C24.5572 14.26 25.0752 12.5946 25.0752 10.721C25.0752 8.63922 24.5572 6.86971 23.6246 5.30837C22.5884 3.74703 21.2414 2.60205 19.3763 1.76933C17.5112 0.936621 15.4389 0.520264 12.9521 0.520264H0V27.3753H9.01465V20.6095H11.3978L15.957 27.3753H25.5933L19.998 19.1522ZM15.0244 13.011C14.4027 13.5314 13.4702 13.8437 12.2268 13.8437H9.01465V7.59833H12.3304C13.5738 7.59833 14.5063 7.9106 15.128 8.43105C15.7497 8.95149 16.0606 9.7842 16.0606 10.721C15.957 11.7619 15.6461 12.4905 15.0244 13.011Z" fill="#131313"/>
</g>
<defs>
<clipPath id="clip0_347_4821">
<rect width="161.538" height="28" fill="white"/>
</clipPath>
</defs>
</svg>
