<svg width="54" height="54" viewBox="0 0 54 54" fill="none" xmlns="http://www.w3.org/2000/svg">
<rect width="54" height="54" rx="27" fill="#F5F7FA"/>
<path fill-rule="evenodd" clip-rule="evenodd" d="M20.2929 20.2929C20.6834 19.9024 21.3166 19.9024 21.7071 20.2929L27 25.5858L32.2929 20.2929C32.6834 19.9024 33.3166 19.9024 33.7071 20.2929C34.0976 20.6834 34.0976 21.3166 33.7071 21.7071L28.4142 27L33.7071 32.2929C34.0976 32.6834 34.0976 33.3166 33.7071 33.7071C33.3166 34.0976 32.6834 34.0976 32.2929 33.7071L27 28.4142L21.7071 33.7071C21.3166 34.0976 20.6834 34.0976 20.2929 33.7071C19.9024 33.3166 19.9024 32.6834 20.2929 32.2929L25.5858 27L20.2929 21.7071C19.9024 21.3166 19.9024 20.6834 20.2929 20.2929Z" fill="#131313"/>
</svg>
