<svg width="24" height="24" viewBox="0 0 24 24" fill="none" xmlns="http://www.w3.org/2000/svg">
<g id="md-music">
<path id="Vector" fill-rule="evenodd" clip-rule="evenodd" d="M20 10.1805L10 11.8472V18.5C10 20.4775 8.17292 22 6 22C3.82708 22 2 20.4775 2 18.5C2 16.5226 3.82708 15 6 15C6.72317 15 7.40804 15.1687 8 15.4666V4.15291L22 1.81958V17.5C22 19.4775 20.1729 21 18 21C15.8271 21 14 19.4775 14 17.5C14 15.5226 15.8271 14 18 14C18.7232 14 19.408 14.1687 20 14.4666V10.1805ZM6 20C7.14079 20 8 19.284 8 18.5C8 17.7161 7.14079 17 6 17C4.85921 17 4 17.7161 4 18.5C4 19.284 4.85921 20 6 20ZM18 19C19.1408 19 20 18.284 20 17.5C20 16.7161 19.1408 16 18 16C16.8592 16 16 16.7161 16 17.5C16 18.284 16.8592 19 18 19ZM10 5.84717V9.81958L20 8.15291V4.1805L10 5.84717Z" fill="#DB1F26"/>
</g>
</svg>
