<svg width="24" height="24" viewBox="0 0 24 24" fill="none" xmlns="http://www.w3.org/2000/svg">
<g id="md-relax">
<path id="Vector" d="M18.9599 19.7699C20.6099 19.7699 21.8399 18.5099 21.8699 16.8899C21.8699 14.9699 21.8699 13.0499 21.8699 11.1299V10.0199C21.8699 9.41995 21.5399 9.08995 20.9399 9.08995H17.8799V7.22995C17.8799 6.14995 17.8799 5.09995 17.8799 4.01995C17.8799 2.84995 17.0999 2.06995 15.9299 2.06995C13.3199 2.06995 10.7099 2.06995 8.09991 2.06995C6.92991 2.06995 6.14991 2.84995 6.14991 4.01995C6.14991 5.09995 6.14991 6.17995 6.14991 7.28995V8.99995L5.93991 9.05995H5.12991C4.58991 9.05995 4.01991 9.05995 3.47991 9.05995C2.75991 9.05995 2.15991 9.62995 2.15991 10.3799C2.15991 10.5299 2.15991 10.6799 2.15991 10.7999V10.9199C2.15991 11.5199 2.15991 12.1199 2.15991 12.7199C2.15991 14.1299 2.15991 15.5999 2.15991 17.0099C2.18991 18.3899 3.26991 19.5899 4.67991 19.7099C5.09991 19.7399 5.54991 19.7399 5.96991 19.7399C6.14991 19.7399 6.35991 19.7399 6.53991 19.7399C6.59991 19.7399 6.65991 19.7399 6.71991 19.7399H6.98991L6.95991 19.9199C6.92991 20.0399 6.92991 20.1599 6.89991 20.2499C6.86991 20.4899 6.80991 20.6999 6.80991 20.9399C6.74991 21.3899 7.07991 21.8099 7.49991 21.8699C7.97991 21.9299 8.36991 21.6599 8.45991 21.1499C8.51991 20.8499 8.54991 20.5799 8.60991 20.2799L8.69991 19.7399H15.2099L15.2999 20.2799C15.3599 20.5799 15.3899 20.8799 15.4499 21.1799C15.5099 21.5099 15.6899 21.7199 15.9899 21.8099C16.2899 21.9299 16.5899 21.8699 16.8299 21.6599C17.0699 21.4499 17.1899 21.1499 17.0999 20.7899C17.0699 20.5799 17.0399 20.3999 17.0099 20.1899L16.9199 19.7099H17.6999C18.1499 19.7999 18.5399 19.7999 18.9599 19.7699ZM7.85991 3.77995H16.1399V14.0699H7.85991V3.77995ZM5.18991 18.0899C4.28991 18.0899 3.86991 17.6399 3.86991 16.7699V10.7999H6.17991V12.2399C6.17991 13.1099 6.17991 13.9799 6.17991 14.8499C6.17991 15.4499 6.50991 15.7799 7.10991 15.7799C10.3799 15.7799 13.6499 15.7799 16.9199 15.7799C17.5199 15.7799 17.8499 15.4499 17.8499 14.8499C17.8499 14.0099 17.8499 13.1999 17.8499 12.3599V10.8299H20.1599V16.7999C20.1599 17.6399 19.6799 18.0899 18.8399 18.0899H5.18991Z" fill="#DB1F26"/>
</g>
</svg>
