<svg width="24" height="24" viewBox="0 0 24 24" fill="none" xmlns="http://www.w3.org/2000/svg">
<g id="md-transport" clip-path="url(#clip0_232_4137)">
<path id="Vector" d="M6 19C7.10457 19 8 18.1046 8 17C8 15.8954 7.10457 15 6 15C4.89543 15 4 15.8954 4 17C4 18.1046 4.89543 19 6 19Z" stroke="#DB1F26" stroke-width="1.7" stroke-linecap="round" stroke-linejoin="round"/>
<path id="Vector_2" d="M18 19C19.1046 19 20 18.1046 20 17C20 15.8954 19.1046 15 18 15C16.8954 15 16 15.8954 16 17C16 18.1046 16.8954 19 18 19Z" stroke="#DB1F26" stroke-width="1.7" stroke-linecap="round" stroke-linejoin="round"/>
<path id="Vector_3" d="M4 17H2V6C2 5.73478 2.10536 5.48043 2.29289 5.29289C2.48043 5.10536 2.73478 5 3 5H17C18.3261 5 19.5979 5.7375 20.5355 7.05025C21.4732 8.36301 22 10.1435 22 12V17H20M16 17H8" stroke="#DB1F26" stroke-width="1.7" stroke-linecap="round" stroke-linejoin="round"/>
<path id="Vector_4" d="M16 5L17.5 12H22" stroke="#DB1F26" stroke-width="1.7" stroke-linecap="round" stroke-linejoin="round"/>
<path id="Vector_5" d="M2 10H17" stroke="#DB1F26" stroke-width="1.7" stroke-linecap="round" stroke-linejoin="round"/>
<path id="Vector_6" d="M7 5V10" stroke="#DB1F26" stroke-width="1.7" stroke-linecap="round" stroke-linejoin="round"/>
<path id="Vector_7" d="M12 5V10" stroke="#DB1F26" stroke-width="1.7" stroke-linecap="round" stroke-linejoin="round"/>
</g>
<defs>
<clipPath id="clip0_232_4137">
<rect width="24" height="24" fill="white"/>
</clipPath>
</defs>
</svg>
