<svg width="24" height="24" viewBox="0 0 24 24" fill="none" xmlns="http://www.w3.org/2000/svg">
<g id="md-tv">
<path id="Vector" d="M20.25 4.49995H13.8075L15.525 2.78245C15.6479 2.63898 15.7121 2.45442 15.7048 2.26566C15.6975 2.07691 15.6192 1.89785 15.4857 1.76428C15.3521 1.63071 15.173 1.55246 14.9843 1.54517C14.7955 1.53788 14.611 1.60208 14.4675 1.72495L12 4.19245L9.5325 1.71745C9.38902 1.59458 9.20447 1.53038 9.01571 1.53767C8.82695 1.54496 8.6479 1.62321 8.51433 1.75678C8.38076 1.89035 8.30251 2.06941 8.29522 2.25816C8.28793 2.44692 8.35213 2.63148 8.475 2.77495L10.1925 4.49995H3.75C3.15326 4.49995 2.58097 4.73701 2.15901 5.15896C1.73705 5.58092 1.5 6.15321 1.5 6.74995V17.25C1.5 17.8467 1.73705 18.419 2.15901 18.8409C2.58097 19.2629 3.15326 19.5 3.75 19.5H11.25V21H9C8.80109 21 8.61032 21.079 8.46967 21.2196C8.32902 21.3603 8.25 21.551 8.25 21.75C8.25 21.9489 8.32902 22.1396 8.46967 22.2803C8.61032 22.4209 8.80109 22.5 9 22.5H15C15.1989 22.5 15.3897 22.4209 15.5303 22.2803C15.671 22.1396 15.75 21.9489 15.75 21.75C15.75 21.551 15.671 21.3603 15.5303 21.2196C15.3897 21.079 15.1989 21 15 21H12.75V19.5H20.25C20.8467 19.5 21.419 19.2629 21.841 18.8409C22.2629 18.419 22.5 17.8467 22.5 17.25V6.74995C22.5 6.15321 22.2629 5.58092 21.841 5.15896C21.419 4.73701 20.8467 4.49995 20.25 4.49995ZM21 17.25C21 17.4489 20.921 17.6396 20.7803 17.7803C20.6397 17.9209 20.4489 18 20.25 18H3.75C3.55109 18 3.36032 17.9209 3.21967 17.7803C3.07902 17.6396 3 17.4489 3 17.25V6.74995C3 6.55104 3.07902 6.36027 3.21967 6.21962C3.36032 6.07897 3.55109 5.99995 3.75 5.99995H20.25C20.4489 5.99995 20.6397 6.07897 20.7803 6.21962C20.921 6.36027 21 6.55104 21 6.74995V17.25Z" fill="#DB1F26" stroke="#DB1F26" stroke-width="0.3"/>
</g>
</svg>
