<svg width="24" height="24" viewBox="0 0 24 24" fill="none" xmlns="http://www.w3.org/2000/svg">
<g id="md-zoom">
<g id="Vector">
<mask id="path-1-inside-1_231_3513" fill="white">
<path d="M4 9C3.71667 9 3.47933 8.904 3.288 8.712C3.096 8.52067 3 8.28333 3 8V4C3 3.71667 3.096 3.479 3.288 3.287C3.47933 3.09567 3.71667 3 4 3H8C8.28333 3 8.521 3.09567 8.713 3.287C8.90433 3.479 9 3.71667 9 4C9 4.28333 8.90433 4.52067 8.713 4.712C8.521 4.904 8.28333 5 8 5H6.4L8.825 7.425C9.00833 7.60833 9.1 7.83333 9.1 8.1C9.1 8.36667 9 8.6 8.8 8.8C8.61667 8.98333 8.38333 9.075 8.1 9.075C7.81667 9.075 7.58333 8.98333 7.4 8.8L5 6.4V8C5 8.28333 4.90433 8.52067 4.713 8.712C4.521 8.904 4.28333 9 4 9ZM15.2 8.8C15.0167 8.61667 14.925 8.38333 14.925 8.1C14.925 7.81667 15.0167 7.58333 15.2 7.4L17.6 5H16C15.7167 5 15.4793 4.904 15.288 4.712C15.096 4.52067 15 4.28333 15 4C15 3.71667 15.096 3.479 15.288 3.287C15.4793 3.09567 15.7167 3 16 3H20C20.2833 3 20.5207 3.09567 20.712 3.287C20.904 3.479 21 3.71667 21 4V8C21 8.28333 20.904 8.52067 20.712 8.712C20.5207 8.904 20.2833 9 20 9C19.7167 9 19.4793 8.904 19.288 8.712C19.096 8.52067 19 8.28333 19 8V6.4L16.575 8.825C16.3917 9.00833 16.1667 9.1 15.9 9.1C15.6333 9.1 15.4 9 15.2 8.8ZM16 21C15.7167 21 15.4793 20.904 15.288 20.712C15.096 20.5207 15 20.2833 15 20C15 19.7167 15.096 19.4793 15.288 19.288C15.4793 19.096 15.7167 19 16 19H17.6L15.175 16.575C14.9917 16.3917 14.9 16.1667 14.9 15.9C14.9 15.6333 15 15.4 15.2 15.2C15.3833 15.0167 15.6167 14.925 15.9 14.925C16.1833 14.925 16.4167 15.0167 16.6 15.2L19 17.6V16C19 15.7167 19.096 15.479 19.288 15.287C19.4793 15.0957 19.7167 15 20 15C20.2833 15 20.5207 15.0957 20.712 15.287C20.904 15.479 21 15.7167 21 16V20C21 20.2833 20.904 20.5207 20.712 20.712C20.5207 20.904 20.2833 21 20 21H16ZM4 21C3.71667 21 3.47933 20.904 3.288 20.712C3.096 20.5207 3 20.2833 3 20V16C3 15.7167 3.096 15.479 3.288 15.287C3.47933 15.0957 3.71667 15 4 15C4.28333 15 4.521 15.0957 4.713 15.287C4.90433 15.479 5 15.7167 5 16V17.6L7.425 15.175C7.60833 14.9917 7.83333 14.9 8.1 14.9C8.36667 14.9 8.6 15 8.8 15.2C8.98333 15.3833 9.075 15.6167 9.075 15.9C9.075 16.1833 8.98333 16.4167 8.8 16.6L6.4 19H8C8.28333 19 8.521 19.096 8.713 19.288C8.90433 19.4793 9 19.7167 9 20C9 20.2833 8.90433 20.5207 8.713 20.712C8.521 20.904 8.28333 21 8 21H4Z"/>
</mask>
<path d="M4 9C3.71667 9 3.47933 8.904 3.288 8.712C3.096 8.52067 3 8.28333 3 8V4C3 3.71667 3.096 3.479 3.288 3.287C3.47933 3.09567 3.71667 3 4 3H8C8.28333 3 8.521 3.09567 8.713 3.287C8.90433 3.479 9 3.71667 9 4C9 4.28333 8.90433 4.52067 8.713 4.712C8.521 4.904 8.28333 5 8 5H6.4L8.825 7.425C9.00833 7.60833 9.1 7.83333 9.1 8.1C9.1 8.36667 9 8.6 8.8 8.8C8.61667 8.98333 8.38333 9.075 8.1 9.075C7.81667 9.075 7.58333 8.98333 7.4 8.8L5 6.4V8C5 8.28333 4.90433 8.52067 4.713 8.712C4.521 8.904 4.28333 9 4 9ZM15.2 8.8C15.0167 8.61667 14.925 8.38333 14.925 8.1C14.925 7.81667 15.0167 7.58333 15.2 7.4L17.6 5H16C15.7167 5 15.4793 4.904 15.288 4.712C15.096 4.52067 15 4.28333 15 4C15 3.71667 15.096 3.479 15.288 3.287C15.4793 3.09567 15.7167 3 16 3H20C20.2833 3 20.5207 3.09567 20.712 3.287C20.904 3.479 21 3.71667 21 4V8C21 8.28333 20.904 8.52067 20.712 8.712C20.5207 8.904 20.2833 9 20 9C19.7167 9 19.4793 8.904 19.288 8.712C19.096 8.52067 19 8.28333 19 8V6.4L16.575 8.825C16.3917 9.00833 16.1667 9.1 15.9 9.1C15.6333 9.1 15.4 9 15.2 8.8ZM16 21C15.7167 21 15.4793 20.904 15.288 20.712C15.096 20.5207 15 20.2833 15 20C15 19.7167 15.096 19.4793 15.288 19.288C15.4793 19.096 15.7167 19 16 19H17.6L15.175 16.575C14.9917 16.3917 14.9 16.1667 14.9 15.9C14.9 15.6333 15 15.4 15.2 15.2C15.3833 15.0167 15.6167 14.925 15.9 14.925C16.1833 14.925 16.4167 15.0167 16.6 15.2L19 17.6V16C19 15.7167 19.096 15.479 19.288 15.287C19.4793 15.0957 19.7167 15 20 15C20.2833 15 20.5207 15.0957 20.712 15.287C20.904 15.479 21 15.7167 21 16V20C21 20.2833 20.904 20.5207 20.712 20.712C20.5207 20.904 20.2833 21 20 21H16ZM4 21C3.71667 21 3.47933 20.904 3.288 20.712C3.096 20.5207 3 20.2833 3 20V16C3 15.7167 3.096 15.479 3.288 15.287C3.47933 15.0957 3.71667 15 4 15C4.28333 15 4.521 15.0957 4.713 15.287C4.90433 15.479 5 15.7167 5 16V17.6L7.425 15.175C7.60833 14.9917 7.83333 14.9 8.1 14.9C8.36667 14.9 8.6 15 8.8 15.2C8.98333 15.3833 9.075 15.6167 9.075 15.9C9.075 16.1833 8.98333 16.4167 8.8 16.6L6.4 19H8C8.28333 19 8.521 19.096 8.713 19.288C8.90433 19.4793 9 19.7167 9 20C9 20.2833 8.90433 20.5207 8.713 20.712C8.521 20.904 8.28333 21 8 21H4Z" fill="#131313"/>
<path d="M3.288 8.712L18.045 -5.99375L18.0194 -6.01941L17.9937 -6.04499L3.288 8.712ZM8.713 3.287L23.47 -11.4187L23.4444 -11.4444L23.4188 -11.47L8.713 3.287ZM6.4 5V-15.8333H-43.8961L-8.33139 19.7314L6.4 5ZM8.825 7.425L-5.90639 22.1564H-5.90639L8.825 7.425ZM5 6.4L19.7314 -8.33139L-15.8333 -43.8961V6.4H5ZM15.2 7.4L0.46861 -7.33139L0.468608 -7.33139L15.2 7.4ZM17.6 5L32.3314 19.7314L67.8961 -15.8333H17.6V5ZM15.288 4.712L30.045 -9.99375L30.0194 -10.0194L29.9937 -10.045L15.288 4.712ZM20.712 8.712L6.00625 -6.04499L5.98059 -6.01941L5.95501 -5.99375L20.712 8.712ZM19.288 8.712L34.045 -5.99375L34.0194 -6.01941L33.9937 -6.04499L19.288 8.712ZM19 6.4H39.8333V-43.8961L4.26861 -8.33139L19 6.4ZM16.575 8.825L31.3064 23.5564H31.3064L16.575 8.825ZM15.288 20.712L30.045 6.00625L30.0194 5.98059L29.9937 5.95501L15.288 20.712ZM15.288 19.288L29.9937 34.045L30.0194 34.0194L30.045 33.9937L15.288 19.288ZM17.6 19V39.8333H67.8961L32.3314 4.26861L17.6 19ZM15.175 16.575L0.443609 31.3064L0.443611 31.3064L15.175 16.575ZM16.6 15.2L31.3314 0.468611L31.3314 0.468608L16.6 15.2ZM19 17.6L4.26861 32.3314L39.8333 67.8961V17.6H19ZM20.712 20.712L6.00625 5.95501L5.98059 5.98059L5.95501 6.00625L20.712 20.712ZM3.288 20.712L18.045 6.00625L18.0194 5.98059L17.9937 5.95501L3.288 20.712ZM4.713 15.287L19.47 0.58125L19.4444 0.555586L19.4187 0.530011L4.713 15.287ZM5 17.6H-15.8333V67.8961L19.7314 32.3314L5 17.6ZM8.8 16.6L23.5314 31.3314V31.3314L8.8 16.6ZM6.4 19L-8.33139 4.26861L-43.8961 39.8333H6.4V19ZM4 -11.8333C6.24988 -11.8333 8.80609 -11.4431 11.4216 -10.3852C14.0555 -9.31976 16.2779 -7.76697 18.045 -5.99375L-11.469 23.4177C-7.17556 27.7261 -1.54166 29.8333 4 29.8333V-11.8333ZM17.9937 -6.04499C19.767 -4.27792 21.3198 -2.05555 22.3852 0.578418C23.4431 3.19391 23.8333 5.75012 23.8333 8H-17.8333C-17.8333 13.5417 -15.7261 19.1756 -11.4177 23.469L17.9937 -6.04499ZM23.8333 8V4H-17.8333V8H23.8333ZM23.8333 4C23.8333 6.25032 23.443 8.80247 22.389 11.4119C21.3278 14.039 19.7824 16.2553 18.0194 18.0184L-11.4434 -11.4444C-15.7277 -7.16004 -17.8333 -1.54092 -17.8333 4H23.8333ZM18.0194 18.0184C16.2489 19.7889 14.0266 21.3349 11.3982 22.3944C8.78894 23.4461 6.24096 23.8333 4 23.8333V-17.8333C-1.51879 -17.8333 -7.14474 -15.743 -11.4434 -11.4444L18.0194 18.0184ZM4 23.8333H8V-17.8333H4V23.8333ZM8 23.8333C5.7586 23.8333 3.21467 23.446 0.611408 22.3981C-2.01008 21.3429 -4.22631 19.8043 -5.99275 18.044L23.4188 -11.47C19.1292 -15.7446 13.5181 -17.8333 8 -17.8333V23.8333ZM-6.04399 17.9928C-7.80429 16.2263 -9.34294 14.0101 -10.3981 11.3886C-11.446 8.78532 -11.8333 6.2414 -11.8333 4H29.8333C29.8333 -1.51809 27.7446 -7.12922 23.47 -11.4187L-6.04399 17.9928ZM-11.8333 4C-11.8333 1.75905 -11.4461 -0.788928 -10.3944 -3.39824C-9.33489 -6.02661 -7.78888 -8.24891 -6.01839 -10.0194L23.4444 19.4434C27.7431 15.1447 29.8333 9.51878 29.8333 4H-11.8333ZM-6.01839 -10.0194C-4.25533 -11.7825 -2.03898 -13.3279 0.588093 -14.389C3.19753 -15.443 5.74968 -15.8333 8 -15.8333V25.8333C13.5409 25.8333 19.16 23.7277 23.4444 19.4434L-6.01839 -10.0194ZM8 -15.8333H6.4V25.8333H8V-15.8333ZM-8.33139 19.7314L-5.90639 22.1564L23.5564 -7.30639L21.1314 -9.73139L-8.33139 19.7314ZM-5.90639 22.1564C-7.64455 20.4182 -9.19152 18.22 -10.2623 15.5916C-11.3284 12.9749 -11.7333 10.3978 -11.7333 8.1H29.9333C29.9333 2.48428 27.7696 -3.09314 23.5564 -7.30639L-5.90639 22.1564ZM-11.7333 8.1C-11.7333 5.55691 -11.241 2.87495 -10.1239 0.268338C-9.01705 -2.3142 -7.49187 -4.37091 -5.93139 -5.93139L23.5314 23.5314C27.3754 19.6874 29.9333 14.2532 29.9333 8.1H-11.7333ZM-5.93139 -5.93139C-4.06836 -7.79442 -1.77176 -9.34668 0.869753 -10.3844C3.47496 -11.4079 5.97175 -11.7583 8.1 -11.7583V29.9083C13.3443 29.9083 19.0593 28.0035 23.5314 23.5314L-5.93139 -5.93139ZM8.1 -11.7583C10.2283 -11.7583 12.725 -11.4079 15.3302 -10.3844C17.9717 -9.34668 20.2684 -7.79443 22.1314 -5.93139L-7.33139 23.5314C-2.85926 28.0035 2.85575 29.9083 8.1 29.9083V-11.7583ZM22.1314 -5.93139L19.7314 -8.33139L-9.73139 21.1314L-7.33139 23.5314L22.1314 -5.93139ZM-15.8333 6.4V8H25.8333V6.4H-15.8333ZM-15.8333 8C-15.8333 5.75903 -15.4461 3.21105 -14.3944 0.601744C-13.3349 -2.02663 -11.7889 -4.24892 -10.0184 -6.01939L19.4444 23.4434C23.743 19.1447 25.8333 13.5188 25.8333 8H-15.8333ZM-10.0184 -6.01939C-8.25534 -7.78245 -6.03899 -9.32785 -3.41191 -10.389C-0.80247 -11.443 1.74968 -11.8333 4 -11.8333V29.8333C9.54093 29.8333 15.16 27.7277 19.4444 23.4434L-10.0184 -6.01939ZM29.9314 -5.93139C31.7944 -4.06836 33.3467 -1.77176 34.3844 0.869753C35.4079 3.47496 35.7583 5.97175 35.7583 8.1H-5.90833C-5.90833 13.3443 -4.00352 19.0593 0.468608 23.5314L29.9314 -5.93139ZM35.7583 8.1C35.7583 10.2283 35.4079 12.725 34.3844 15.3302C33.3467 17.9717 31.7944 20.2684 29.9314 22.1314L0.468608 -7.33139C-4.00353 -2.85926 -5.90833 2.85575 -5.90833 8.1H35.7583ZM29.9314 22.1314L32.3314 19.7314L2.86861 -9.73139L0.46861 -7.33139L29.9314 22.1314ZM17.6 -15.8333H16V25.8333H17.6V-15.8333ZM16 -15.8333C18.2499 -15.8333 20.8061 -15.4431 23.4216 -14.3852C26.0555 -13.3198 28.2779 -11.767 30.045 -9.99375L0.531011 19.4177C4.82444 23.7261 10.4583 25.8333 16 25.8333V-15.8333ZM29.9937 -10.045C31.767 -8.27792 33.3198 -6.05555 34.3852 -3.42158C35.4431 -0.806089 35.8333 1.75012 35.8333 4H-5.83333C-5.83333 9.54166 -3.72614 15.1756 0.58225 19.469L29.9937 -10.045ZM35.8333 4C35.8333 6.25032 35.443 8.80247 34.389 11.4119C33.3278 14.039 31.7824 16.2553 30.0194 18.0184L0.556608 -11.4444C-3.72774 -7.16004 -5.83333 -1.54092 -5.83333 4H35.8333ZM30.0194 18.0184C28.2489 19.7889 26.0266 21.3349 23.3982 22.3944C20.7889 23.4461 18.241 23.8333 16 23.8333V-17.8333C10.4812 -17.8333 4.85526 -15.743 0.556608 -11.4444L30.0194 18.0184ZM16 23.8333H20V-17.8333H16V23.8333ZM20 23.8333C17.759 23.8333 15.2111 23.4461 12.6018 22.3944C9.97338 21.3349 7.75109 19.7889 5.98061 18.0184L35.4434 -11.4444C31.1447 -15.743 25.5188 -17.8333 20 -17.8333V23.8333ZM5.98061 18.0184C4.21755 16.2553 2.67215 14.039 1.611 11.4119C0.55698 8.80247 0.166666 6.25032 0.166666 4H41.8333C41.8333 -1.54092 39.7277 -7.16004 35.4434 -11.4444L5.98061 18.0184ZM0.166666 4V8H41.8333V4H0.166666ZM0.166666 8C0.166666 5.75012 0.55686 3.19391 1.61481 0.578418C2.68024 -2.05555 4.23303 -4.27792 6.00625 -6.04499L35.4178 23.469C39.7261 19.1756 41.8333 13.5417 41.8333 8H0.166666ZM5.95501 -5.99375C7.72208 -7.76697 9.94445 -9.31976 12.5784 -10.3852C15.1939 -11.4431 17.7501 -11.8333 20 -11.8333V29.8333C25.5417 29.8333 31.1756 27.7261 35.469 23.4177L5.95501 -5.99375ZM20 -11.8333C22.2499 -11.8333 24.8061 -11.4431 27.4216 -10.3852C30.0555 -9.31976 32.2779 -7.76697 34.045 -5.99375L4.53101 23.4177C8.82444 27.7261 14.4583 29.8333 20 29.8333V-11.8333ZM33.9937 -6.04499C35.767 -4.27792 37.3198 -2.05555 38.3852 0.578418C39.4431 3.19391 39.8333 5.75012 39.8333 8H-1.83333C-1.83333 13.5417 0.273864 19.1756 4.58225 23.469L33.9937 -6.04499ZM39.8333 8V6.4H-1.83333V8H39.8333ZM4.26861 -8.33139L1.84361 -5.90639L31.3064 23.5564L33.7314 21.1314L4.26861 -8.33139ZM1.84361 -5.90639C3.58178 -7.64457 5.78004 -9.19153 8.40839 -10.2623C11.0251 -11.3284 13.6022 -11.7333 15.9 -11.7333V29.9333C21.5157 29.9333 27.0931 27.7697 31.3064 23.5564L1.84361 -5.90639ZM15.9 -11.7333C18.4431 -11.7333 21.125 -11.241 23.7317 -10.1239C26.3142 -9.01705 28.3709 -7.49187 29.9314 -5.93139L0.468608 23.5314C4.31258 27.3754 9.74679 29.9333 15.9 29.9333V-11.7333ZM16 0.166666C18.2499 0.166666 20.8061 0.55686 23.4216 1.61481C26.0555 2.68024 28.2779 4.23303 30.045 6.00625L0.531011 35.4178C4.82444 39.7261 10.4583 41.8333 16 41.8333V0.166666ZM29.9937 5.95501C31.767 7.72208 33.3198 9.94445 34.3852 12.5784C35.4431 15.1939 35.8333 17.7501 35.8333 20H-5.83333C-5.83333 25.5417 -3.72614 31.1756 0.58225 35.469L29.9937 5.95501ZM35.8333 20C35.8333 22.2499 35.4431 24.8061 34.3852 27.4216C33.3198 30.0555 31.767 32.2779 29.9937 34.045L0.58225 4.53101C-3.72614 8.82444 -5.83333 14.4583 -5.83333 20H35.8333ZM30.045 33.9937C28.2779 35.767 26.0555 37.3198 23.4216 38.3852C20.8061 39.4431 18.2499 39.8333 16 39.8333V-1.83333C10.4583 -1.83333 4.82444 0.273864 0.531011 4.58225L30.045 33.9937ZM16 39.8333H17.6V-1.83333H16V39.8333ZM32.3314 4.26861L29.9064 1.84361L0.443611 31.3064L2.86861 33.7314L32.3314 4.26861ZM29.9064 1.84361C31.6446 3.58178 33.1915 5.78004 34.2623 8.40839C35.3284 11.0251 35.7333 13.6022 35.7333 15.9H-5.93333C-5.93333 21.5157 -3.76966 27.0931 0.443609 31.3064L29.9064 1.84361ZM35.7333 15.9C35.7333 18.4431 35.241 21.125 34.1239 23.7317C33.017 26.3142 31.4919 28.3709 29.9314 29.9314L0.468608 0.468608C-3.37536 4.31258 -5.93333 9.74679 -5.93333 15.9H35.7333ZM29.9314 29.9314C28.0684 31.7944 25.7718 33.3467 23.1302 34.3844C20.525 35.4079 18.0283 35.7583 15.9 35.7583V-5.90833C10.6557 -5.90833 4.94074 -4.00352 0.468608 0.468608L29.9314 29.9314ZM15.9 35.7583C13.7717 35.7583 11.275 35.4079 8.66977 34.3844C6.02826 33.3467 3.73165 31.7944 1.86861 29.9314L31.3314 0.468608C26.8592 -4.00353 21.1442 -5.90833 15.9 -5.90833V35.7583ZM1.86861 29.9314L4.26861 32.3314L33.7314 2.86861L31.3314 0.468611L1.86861 29.9314ZM39.8333 17.6V16H-1.83333V17.6H39.8333ZM39.8333 16C39.8333 18.2503 39.443 20.8025 38.389 23.4119C37.3279 26.039 35.7825 28.2553 34.0194 30.0184L4.55661 0.555608C0.272253 4.83996 -1.83333 10.4591 -1.83333 16H39.8333ZM34.0194 30.0184C32.2489 31.7889 30.0266 33.3349 27.3982 34.3944C24.7889 35.4461 22.241 35.8333 20 35.8333V-5.83333C14.4812 -5.83333 8.85527 -3.74306 4.55661 0.555608L34.0194 30.0184ZM20 35.8333C17.759 35.8333 15.2111 35.4461 12.6018 34.3944C9.97339 33.3349 7.75109 31.7889 5.98061 30.0184L35.4434 0.555608C31.1447 -3.74306 25.5188 -5.83333 20 -5.83333V35.8333ZM5.98061 30.0184C4.21755 28.2553 2.67215 26.039 1.611 23.4119C0.55698 20.8025 0.166666 18.2503 0.166666 16H41.8333C41.8333 10.4591 39.7277 4.83996 35.4434 0.555608L5.98061 30.0184ZM0.166666 16V20H41.8333V16H0.166666ZM0.166666 20C0.166666 17.7501 0.55686 15.1939 1.61481 12.5784C2.68024 9.94445 4.23303 7.72208 6.00625 5.95501L35.4178 35.469C39.7261 31.1756 41.8333 25.5417 41.8333 20H0.166666ZM5.95501 6.00625C7.72208 4.23303 9.94445 2.68024 12.5784 1.61481C15.1939 0.55686 17.7501 0.166666 20 0.166666V41.8333C25.5417 41.8333 31.1756 39.7261 35.469 35.4178L5.95501 6.00625ZM20 0.166666H16V41.8333H20V0.166666ZM4 0.166666C6.24988 0.166666 8.80609 0.55686 11.4216 1.61481C14.0555 2.68024 16.2779 4.23303 18.045 6.00625L-11.469 35.4178C-7.17556 39.7261 -1.54166 41.8333 4 41.8333V0.166666ZM17.9937 5.95501C19.767 7.72208 21.3198 9.94445 22.3852 12.5784C23.4431 15.1939 23.8333 17.7501 23.8333 20H-17.8333C-17.8333 25.5417 -15.7261 31.1756 -11.4177 35.469L17.9937 5.95501ZM23.8333 20V16H-17.8333V20H23.8333ZM23.8333 16C23.8333 18.2503 23.443 20.8025 22.389 23.4119C21.3279 26.039 19.7825 28.2553 18.0194 30.0184L-11.4434 0.555608C-15.7277 4.83996 -17.8333 10.4591 -17.8333 16H23.8333ZM18.0194 30.0184C16.2489 31.7889 14.0266 33.3349 11.3982 34.3944C8.78893 35.4461 6.24095 35.8333 4 35.8333V-5.83333C-1.51878 -5.83333 -7.14473 -3.74306 -11.4434 0.555608L18.0194 30.0184ZM4 35.8333C1.7586 35.8333 -0.785321 35.446 -3.38859 34.3981C-6.01008 33.3429 -8.22632 31.8043 -9.99275 30.044L19.4187 0.530011C15.1292 -3.74462 9.5181 -5.83333 4 -5.83333V35.8333ZM-10.044 29.9928C-11.8043 28.2263 -13.3429 26.0101 -14.3981 23.3886C-15.446 20.7853 -15.8333 18.2414 -15.8333 16H25.8333C25.8333 10.4819 23.7446 4.87076 19.47 0.58125L-10.044 29.9928ZM-15.8333 16V17.6H25.8333V16H-15.8333ZM19.7314 32.3314L22.1564 29.9064L-7.30639 0.443609L-9.73139 2.86861L19.7314 32.3314ZM22.1564 29.9064C20.4182 31.6446 18.22 33.1915 15.5916 34.2623C12.9749 35.3284 10.3978 35.7333 8.1 35.7333V-5.93333C2.48428 -5.93333 -3.09314 -3.76965 -7.30639 0.443609L22.1564 29.9064ZM8.1 35.7333C5.55691 35.7333 2.87495 35.241 0.268338 34.1239C-2.3142 33.017 -4.37091 31.4919 -5.93139 29.9314L23.5314 0.468608C19.6874 -3.37536 14.2532 -5.93333 8.1 -5.93333V35.7333ZM-5.93139 29.9314C-7.79442 28.0684 -9.34668 25.7718 -10.3844 23.1302C-11.4079 20.525 -11.7583 18.0283 -11.7583 15.9H29.9083C29.9083 10.6557 28.0035 4.94074 23.5314 0.468608L-5.93139 29.9314ZM-11.7583 15.9C-11.7583 13.7717 -11.4079 11.275 -10.3844 8.66977C-9.34669 6.02826 -7.79444 3.73165 -5.93139 1.86861L23.5314 31.3314C28.0035 26.8592 29.9083 21.1442 29.9083 15.9H-11.7583ZM-5.93139 1.86861L-8.33139 4.26861L21.1314 33.7314L23.5314 31.3314L-5.93139 1.86861ZM6.4 39.8333H8V-1.83333H6.4V39.8333ZM8 39.8333C5.74968 39.8333 3.19753 39.443 0.588093 38.389C-2.03898 37.3279 -4.25533 35.7825 -6.01839 34.0194L23.4444 4.55661C19.16 0.272253 13.5409 -1.83333 8 -1.83333V39.8333ZM-6.01839 34.0194C-7.78888 32.2489 -9.33489 30.0266 -10.3944 27.3982C-11.4461 24.7889 -11.8333 22.241 -11.8333 20H29.8333C29.8333 14.4812 27.7431 8.85527 23.4444 4.55661L-6.01839 34.0194ZM-11.8333 20C-11.8333 17.759 -11.4461 15.2111 -10.3944 12.6018C-9.33489 9.97339 -7.78888 7.75109 -6.01839 5.98061L23.4444 35.4434C27.7431 31.1447 29.8333 25.5188 29.8333 20H-11.8333ZM-6.01839 5.98061C-4.25533 4.21755 -2.03898 2.67215 0.588093 1.611C3.19753 0.55698 5.74968 0.166666 8 0.166666V41.8333C13.5409 41.8333 19.16 39.7277 23.4444 35.4434L-6.01839 5.98061ZM8 0.166666H4V41.8333H8V0.166666Z" fill="#131313" mask="url(#path-1-inside-1_231_3513)"/>
</g>
</g>
</svg>
