<svg width="40" height="40" viewBox="0 0 40 40" fill="none" xmlns="http://www.w3.org/2000/svg">
<rect width="40" height="40" rx="20" fill="#DB1F26"/>
<g clip-path="url(#clip0_225_5632)">
<path d="M14 12V28C13.9999 28.1779 14.0474 28.3526 14.1374 28.5061C14.2274 28.6596 14.3567 28.7863 14.512 28.8731C14.6673 28.9599 14.843 29.0038 15.0209 29C15.1988 28.9963 15.3725 28.9452 15.524 28.852L28.524 20.852C28.6696 20.7625 28.7898 20.6372 28.8733 20.4881C28.9567 20.3389 29.0005 20.1709 29.0005 20C29.0005 19.8291 28.9567 19.661 28.8733 19.5119C28.7898 19.3627 28.6696 19.2374 28.524 19.148L15.524 11.148C15.3725 11.0547 15.1988 11.0036 15.0209 10.9999C14.843 10.9962 14.6673 11.04 14.512 11.1268C14.3567 11.2137 14.2274 11.3404 14.1374 11.4938C14.0474 11.6473 13.9999 11.822 14 12Z" fill="white"/>
</g>
<defs>
<clipPath id="clip0_225_5632">
<rect width="24" height="24" fill="white" transform="translate(8 8)"/>
</clipPath>
</defs>
</svg>
