<svg width="120" height="120" viewBox="0 0 120 120" fill="none" xmlns="http://www.w3.org/2000/svg">
<rect width="120" height="120" rx="60" fill="#DB1F26"/>
<g clip-path="url(#clip0_585_8299)">
<path d="M54 52V68C53.9999 68.178 54.0474 68.3527 54.1374 68.5062C54.2274 68.6597 54.3567 68.7864 54.512 68.8732C54.6673 68.96 54.843 69.0038 55.0209 69.0001C55.1988 68.9964 55.3725 68.9453 55.524 68.852L68.524 60.852C68.6696 60.7626 68.7898 60.6373 68.8733 60.4881C68.9567 60.339 69.0005 60.1709 69.0005 60C69.0005 59.8291 68.9567 59.6611 68.8733 59.512C68.7898 59.3628 68.6696 59.2375 68.524 59.148L55.524 51.148C55.3725 51.0548 55.1988 51.0037 55.0209 51C54.843 50.9963 54.6673 51.0401 54.512 51.1269C54.3567 51.2137 54.2274 51.3404 54.1374 51.4939C54.0474 51.6474 53.9999 51.8221 54 52Z" fill="white"/>
</g>
<defs>
<clipPath id="clip0_585_8299">
<rect width="24" height="24" fill="white" transform="translate(48 48)"/>
</clipPath>
</defs>
</svg>
