<svg width="32" height="33" viewBox="0 0 32 33" fill="none" xmlns="http://www.w3.org/2000/svg">
<g id="sm-location-marker">
<path id="Vector" fill-rule="evenodd" clip-rule="evenodd" d="M8.08159 7.00332C10.1821 4.90978 13.031 3.73364 16.0016 3.73364C18.9722 3.73364 21.8211 4.90978 23.9216 7.00332C26.0221 9.09685 27.2022 11.9363 27.2022 14.897C27.2022 17.8577 26.0221 20.6972 23.9216 22.7907L16.0016 30.6844L8.08159 22.7907C7.04145 21.7541 6.21636 20.5235 5.65344 19.1691C5.09052 17.8147 4.80078 16.363 4.80078 14.897C4.80078 13.431 5.09052 11.9793 5.65344 10.6249C6.21636 9.27052 7.04145 8.03989 8.08159 7.00332ZM16.0016 18.0864C16.8503 18.0864 17.6642 17.7503 18.2643 17.1522C18.8644 16.5541 19.2016 15.7429 19.2016 14.897C19.2016 14.0511 18.8644 13.2399 18.2643 12.6418C17.6642 12.0437 16.8503 11.7076 16.0016 11.7076C15.1529 11.7076 14.339 12.0437 13.7388 12.6418C13.1387 13.2399 12.8016 14.0511 12.8016 14.897C12.8016 15.7429 13.1387 16.5541 13.7388 17.1522C14.339 17.7503 15.1529 18.0864 16.0016 18.0864Z" fill="#DB1F26"/>
</g>
</svg>
