<svg width="16" height="16" viewBox="0 0 16 16" fill="none" xmlns="http://www.w3.org/2000/svg">
<g id="sm-phone">
<path id="Vector" d="M5.50318 5.8168L4.91118 2.2688C4.88012 2.082 4.78381 1.91227 4.63937 1.78981C4.49493 1.66734 4.31174 1.60009 4.12238 1.6M5.50318 5.8168L4.12238 1.6M5.50318 5.8168C5.53146 5.98577 5.50476 6.15937 5.42699 6.31202C5.34922 6.46468 5.22449 6.58834 5.07118 6.6648M5.50318 5.8168L5.07118 6.6648M4.12238 1.6L4.12215 2.1C4.12218 2.1 4.12221 2.1 4.12224 2.1H4.12238V1.6ZM5.07118 6.6648L3.83278 7.2832M5.07118 6.6648L3.83278 7.2832M3.83278 7.2832C4.27686 8.38372 4.93824 9.38343 5.7774 10.2226C6.61655 11.0617 7.61625 11.7231 8.71677 12.1672L3.83278 7.2832ZM10.1009 10.99C10.101 10.99 10.101 10.99 10.1011 10.99L10.1832 10.4968L10.1009 10.99ZM13.9 11.8778L14.4 11.8776H13.9V11.8778Z" fill="white" stroke="white"/>
</g>
</svg>
