<svg width="81" height="80" viewBox="0 0 81 80" fill="none" xmlns="http://www.w3.org/2000/svg">
<path d="M50.8351 66.9842C50.8351 67.5133 50.8351 67.9719 50.9409 68.3951C51.47 70.8996 53.1631 72.8396 55.4912 73.6509C57.8192 74.4622 60.3589 73.9331 62.299 72.3105C62.7222 71.9578 63.2161 71.5698 63.9921 71.4992C68.7187 70.9701 72.3871 68.7126 74.9268 64.762C75.8792 63.2805 76.5494 61.4816 77.0079 59.1888V55.2735C76.4788 52.5221 75.5265 50.2646 74.045 48.4304C73.9744 48.3246 73.9039 48.2541 73.8333 48.1482C73.657 47.9013 73.4806 47.6897 73.3042 47.5133C72.246 46.702 72.1049 45.6086 72.1402 44.5856C72.2108 41.3405 72.2108 38.8361 72.1402 36.508C71.9286 29.277 69.4594 22.7867 64.8034 17.2135C59.724 11.1465 53.269 7.47804 45.6146 6.27874C36.0908 4.79726 27.5194 7.19585 20.1825 13.3334C14.2566 18.2717 10.6235 24.6914 9.28308 32.4163C9.00089 34.0389 8.89507 35.7673 8.89507 37.7779C8.89507 39.4004 8.89507 41.0583 8.89507 42.6809C8.89507 43.6332 8.89507 44.5504 8.89507 45.5027C8.89507 45.9613 8.82452 46.4904 8.36597 46.9137C6.03793 49.1712 4.59172 51.9225 4.09789 55.0618C4.06262 55.1676 4.02734 55.2735 4.02734 55.344V59.1888C4.06262 59.2946 4.09789 59.3652 4.09789 59.471C5.36773 66.0671 9.88272 70.441 16.5141 71.4639C17.4312 71.605 18.2072 71.9578 18.9833 72.5927C21.2055 74.3211 23.6393 74.6033 26.179 73.404C28.7187 72.2047 30.0944 70.0883 30.1296 67.3369C30.1649 62.8925 30.1649 58.3422 30.1649 53.9683C30.1649 51.7108 30.1649 49.4533 30.1649 47.2311C30.1649 46.2787 29.9533 45.3969 29.53 44.4798C28.6129 42.5045 26.8845 41.1288 24.8034 40.635C22.687 40.1765 20.5353 40.6703 18.8422 42.0812C18.7716 42.1518 18.7011 42.2223 18.6305 42.2929C18.3131 42.575 17.9251 42.9631 17.2549 42.9983C16.2319 43.0336 15.2443 43.2452 14.2919 43.5274C14.0097 43.6332 13.5864 43.7038 13.269 43.4569C12.881 43.1747 12.9162 42.6809 12.9162 42.434C12.9515 41.5874 12.9515 40.7408 12.9515 39.8943C12.9515 38.6244 12.9515 37.3193 13.0221 36.0142C13.4101 29.1359 15.985 23.21 20.6764 18.4128C27.5194 11.4287 35.7381 8.74788 45.1561 10.4057C55.6323 12.2399 62.8633 18.4128 66.6729 28.7832C68.1896 32.9807 68.1896 37.3546 68.1543 41.6227V42.6809C68.1543 43.0336 68.0485 43.3158 67.8016 43.4922C67.4489 43.7391 67.0609 43.598 66.8492 43.5274C66.0027 43.2452 65.1208 43.0689 64.1684 42.9983C63.4982 42.9278 62.9339 42.7161 62.44 42.2576C60.112 40.247 57.5723 39.859 54.8915 41.0936C52.2108 42.3281 50.8704 44.5151 50.8704 47.5839C50.8704 50.9348 50.8704 54.3211 50.8704 57.672L50.8351 66.9842ZM20.2884 47.5133C20.2884 46.1377 21.0997 44.9736 22.3695 44.5856C23.2513 44.3034 24.1684 44.4445 24.9092 44.9736C25.7205 45.538 26.179 46.4904 26.179 47.5839C26.2143 49.3123 26.179 51.0759 26.179 52.7691C26.179 53.5098 26.179 54.2505 26.179 54.9913V60.1765C26.179 62.3281 26.179 64.4798 26.179 66.6315C26.179 68.0777 25.6499 69.1006 24.5564 69.665C24.1684 69.8766 23.7099 69.9825 23.2866 69.9825C22.9339 69.9825 22.5459 69.9119 22.1931 69.7708C21.3818 69.4534 20.7822 68.7832 20.5 67.9719C20.3942 67.5839 20.3236 67.2311 20.3236 66.9137C20.2884 60.7056 20.2884 54.0742 20.2884 47.5133ZM14.821 47.5839C14.9974 47.5133 15.5265 47.3017 15.9145 47.5839C16.3025 47.866 16.3025 48.3951 16.3025 48.6773C16.3025 50.7937 16.3025 52.9454 16.3025 55.0265V59.4004C16.3025 61.5168 16.3025 63.6332 16.3025 65.7496C16.3025 66.2435 16.3025 66.702 15.9497 66.9489C15.8086 67.0548 15.6676 67.09 15.5265 67.09C15.2795 67.09 14.9974 66.9842 14.6799 66.8784C10.5882 65.3264 7.97796 61.5521 7.97796 57.3193C8.01323 52.8749 10.6235 49.1359 14.821 47.5839ZM64.6975 54.2153C64.6975 52.381 64.6975 50.5468 64.6975 48.6773C64.6975 48.2188 64.6975 47.7602 65.0503 47.5133C65.403 47.2664 65.8263 47.4075 66.2143 47.5486C70.2355 48.9948 73.0221 52.9454 73.0221 57.2135C73.0221 61.4463 70.2002 65.4322 66.2143 66.8784C65.9674 66.9489 65.7205 67.0548 65.4736 67.0548C65.3325 67.0548 65.1914 67.0195 65.0503 66.9137C64.6975 66.6668 64.6975 66.2435 64.6975 65.7496C64.6975 63.6685 64.6975 61.6227 64.6975 59.5415V54.2153ZM54.821 47.725C54.821 46.5609 55.3148 45.5733 56.1261 44.9736C56.8669 44.4445 57.784 44.3034 58.6658 44.6209C59.9356 45.0442 60.6764 46.2082 60.6764 47.725C60.6764 49.9825 60.6764 52.24 60.6764 54.5327V59.4357C60.6764 61.8696 60.6764 64.2682 60.6764 66.702C60.6764 67.3722 60.5706 68.3952 59.7593 69.1712C59.1949 69.7355 58.4542 70.0177 57.7134 70.0177C57.4665 70.0177 57.2549 69.9825 57.0079 69.9119C56.0203 69.665 55.2795 68.9243 54.9621 67.9719C54.8563 67.5839 54.7857 67.1606 54.7857 66.7726C54.821 59.083 54.821 53.2276 54.821 47.725Z" fill="#131313"/>
</svg>
