<svg width="81" height="80" viewBox="0 0 81 80" fill="none" xmlns="http://www.w3.org/2000/svg">
<path d="M61.1824 72.3093C61.1824 73.4293 61.2179 74.4426 61.1646 75.4382C61.1112 76.487 60.4179 77.2159 59.4757 77.3404C58.6046 77.4648 57.7157 76.9315 57.4312 76.0782C57.3246 75.7759 57.3068 75.4382 57.3068 75.1182C57.289 74.2293 57.3068 73.3226 57.3068 72.2915C56.3823 72.2915 55.4935 72.2915 54.6223 72.2915C53.0046 72.2915 52.3112 71.5804 52.3112 69.9448C52.3112 66.7982 52.3112 63.6693 52.3112 60.5226C52.3112 57.2515 53.8223 54.9937 56.7912 53.6782C57.0223 53.5715 57.3068 53.2515 57.3068 53.0204C57.3423 47.4204 57.3246 41.8204 57.3246 36.2204C57.3246 36.1493 57.2712 36.0782 57.2179 35.9359C52.9157 41.4115 47.3868 44.4159 40.489 44.3982C33.5912 44.3982 28.0446 41.4115 23.689 35.847C23.6535 36.2026 23.6357 36.3982 23.6357 36.6115C23.6357 41.9982 23.6357 47.367 23.6179 52.7537C23.6179 53.3048 23.7779 53.5359 24.2935 53.767C27.049 54.9582 28.5601 57.0915 28.6312 60.1137C28.7201 63.4382 28.6668 66.7804 28.649 70.1048C28.649 71.527 27.9023 72.2737 26.4979 72.2915C25.5912 72.3093 24.6668 72.2915 23.6179 72.2915C23.6179 73.4115 23.6535 74.4604 23.6001 75.5093C23.5646 76.4693 22.8357 77.1804 21.9112 77.3048C21.0935 77.4115 20.1868 76.8959 19.9201 76.0782C19.7957 75.7048 19.7601 75.2782 19.7601 74.8693C19.7423 74.0337 19.7601 73.1982 19.7601 72.2737C18.729 72.2737 17.7868 72.2915 16.8446 72.2737C15.5823 72.2559 14.7823 71.5448 14.7646 70.247C14.729 66.8159 14.6757 63.367 14.8001 59.9359C14.9068 56.967 16.4535 54.8515 19.209 53.7315C19.8135 53.4826 19.7601 53.1093 19.7601 52.647C19.7601 43.1182 19.689 33.5893 19.7779 24.0604C19.8312 17.8915 21.7157 12.3448 26.3912 8.14927C32.5246 2.65594 39.689 1.39372 47.369 3.90038C54.9246 6.37149 59.2801 11.9182 60.7735 19.7226C61.0935 21.3937 61.2179 23.1359 61.2179 24.8426C61.2535 34.1048 61.2357 43.3493 61.2357 52.6115C61.2357 53.2337 61.3779 53.5182 62.0001 53.8026C64.7023 54.9937 66.1601 57.1626 66.2312 60.1315C66.3201 63.4559 66.2668 66.7982 66.249 70.1226C66.2312 71.5448 65.4668 72.2559 64.0446 72.2559C63.0846 72.3093 62.1957 72.3093 61.1824 72.3093ZM40.489 6.69149C32.0268 6.67372 23.9023 12.487 23.6179 23.687C23.3868 32.8248 31.1201 40.5048 40.3468 40.5759C49.5912 40.647 57.3957 33.0559 57.2535 23.7937C57.0757 12.7893 49.1468 6.74483 40.489 6.69149ZM24.6846 68.3448C24.6846 65.4826 24.7379 62.7093 24.6668 59.9359C24.6312 58.727 23.8846 57.8559 22.7646 57.4115C20.7201 56.5937 18.6401 58.0693 18.5868 60.4159C18.5512 62.6026 18.569 64.7715 18.569 66.9582C18.569 67.4204 18.569 67.8648 18.569 68.3448C20.6668 68.3448 22.6223 68.3448 24.6846 68.3448ZM62.1957 68.327C62.2312 68.2026 62.2668 68.1315 62.2668 68.0604C62.2668 65.447 62.3201 62.8159 62.249 60.2026C62.1957 58.3715 60.8268 57.1448 59.0846 57.1982C57.4135 57.2515 56.169 58.567 56.169 60.3626C56.1512 62.8159 56.169 65.2693 56.169 67.7226C56.169 67.9359 56.2046 68.1315 56.2223 68.3093C58.2668 68.327 60.2401 68.327 62.1957 68.327Z" fill="#131313"/>
<path d="M51.209 23.456C51.2445 29.6427 46.6045 34.3716 40.4712 34.4071C34.3379 34.4427 29.6623 29.696 29.6445 23.456C29.6445 17.5893 34.5156 12.7004 40.3823 12.6827C46.3023 12.6649 51.1734 17.536 51.209 23.456ZM33.609 23.5627C33.5912 27.5449 36.5423 30.5316 40.4356 30.5316C44.3112 30.5316 47.2445 27.5449 47.2445 23.616C47.2445 19.6338 44.2934 16.6116 40.4179 16.6293C36.5601 16.6471 33.6268 19.6338 33.609 23.5627Z" fill="#131313"/>
</svg>
