<svg width="81" height="80" viewBox="0 0 81 80" fill="none" xmlns="http://www.w3.org/2000/svg">
<path d="M13.8333 13.4933C13.8333 31.0933 13.8333 48.9244 13.8333 66.5066C13.8333 70.7733 16.8555 73.7599 21.1755 73.7777C29.6555 73.7777 37.4955 73.7777 45.1755 73.7777C49.4778 73.7777 52.4822 70.8088 52.5 66.5777C52.5 62.8266 52.5 59.0222 52.5 55.3422C52.5 53.7244 52.5 52.1066 52.5 50.5066V50C52.5 50 52.5 48 50.4999 48C48.3844 48 48.2689 50 48.2689 50V54.9333H18.0644L18.0466 54.4177C18.0466 54.3111 18.0289 54.2222 18.0289 54.1333V48.7644C18.0289 36.9599 18.0289 25.1733 18.0289 13.3688C18.0289 11.5199 19.2022 10.3822 21.1044 10.3822C26.26 10.3822 31.3978 10.3822 36.5533 10.3822H42.6333C42.6333 10.3822 44.4999 10.5 44.4999 8.30217C44.4999 6.22217 42.6333 6.22217 42.6333 6.22217H35.9489C33.8689 6.22217 31.8066 6.22217 29.7266 6.22217C26.8822 6.22217 24.02 6.22217 21.1755 6.22217C16.8555 6.22217 13.8333 9.20883 13.8333 13.4933ZM18.0289 61.7066C18.0289 60.9777 18.0289 60.2666 18.0289 59.5199V59.1644H48.1978L48.2333 59.4844C48.2333 59.5377 48.2511 59.5733 48.2511 59.6266C48.2689 59.7333 48.2866 59.8577 48.2866 59.9644V61.4044C48.2866 63.1288 48.2866 64.9244 48.2866 66.6844C48.2689 68.4266 47.0778 69.6177 45.3178 69.6177C41.3178 69.6177 37.2644 69.6177 33.1755 69.6177C29.1578 69.6177 25.0866 69.6177 21.0333 69.6177C19.2555 69.6177 18.0644 68.4444 18.0466 66.7022C18.0289 65.0488 18.0289 63.4311 18.0289 61.7066Z" fill="#131313"/>
<path d="M64.9978 24.1066C67.6822 20.071 67.8778 15.7688 65.6022 11.3066C63.5222 7.21768 59.06 5.40435 54.9889 7.00435C51.1667 8.49768 48.5178 11.1999 47.1133 15.0577C46.3133 17.2444 46.5622 19.4666 47.8245 21.4755C48.1622 22.0088 48.5711 22.4888 48.9978 23.0044C49.1933 23.2355 49.4067 23.4844 49.6022 23.7332L49.7978 23.9821L46.1 27.6444L45.8511 27.3244C45.7978 27.271 45.7622 27.1999 45.7089 27.1466C45.6378 27.0399 45.5667 26.951 45.4956 26.8799C43.8778 25.3155 41.8867 24.4977 39.86 24.4977C38.7578 24.4977 37.6378 24.7288 36.5356 25.2266C33.4422 26.5955 31.0956 28.871 29.5489 31.9999C28.02 35.0932 28.5356 38.2043 30.9889 40.7999C34.8289 44.8532 41.7445 45.5999 46.4022 42.4532C54.1 37.2444 60.3578 31.0755 64.9978 24.1066ZM44.1089 38.951C42.8645 39.8044 41.3356 40.2132 39.7889 40.2132C37.8511 40.2132 35.8956 39.5555 34.4378 38.2932C32.7311 36.8177 32.4645 35.2177 33.5667 33.2977C34.5267 31.6444 35.8422 30.311 37.4778 29.351C39.7 28.0355 41.8156 28.5332 43.2733 30.7021C43.4156 30.8977 43.5222 31.111 43.6467 31.3244C43.7356 31.4844 43.8067 31.6266 43.8956 31.7688C44.2333 32.3199 44.7845 32.6932 45.3711 32.7999C45.9222 32.8888 46.4911 32.7466 46.9533 32.391C49.8333 30.1155 52.4645 27.5199 54.7578 24.6577C55.1311 24.1955 55.2733 23.6799 55.1845 23.1288C55.0778 22.5243 54.6867 21.9555 54.0822 21.5644C53.3533 21.1021 52.5178 20.551 51.8422 19.8755C50.8645 18.9155 50.5978 17.6177 51.1133 16.3199C52.1445 13.7066 53.9578 11.8755 56.5533 10.8621C58.2778 10.1866 60.02 10.7199 61.3178 12.3377C62.3311 13.5999 62.8467 15.1644 62.9178 17.1377V17.1555V17.1732C62.8822 18.9866 62.42 20.4977 61.5133 21.8488C57.0333 28.4266 51.3445 34.0266 44.1089 38.951Z" fill="#131313"/>
<path d="M35.22 64.3911C35.22 63.2533 34.2955 62.3467 33.1755 62.3467C32.0555 62.3467 31.1311 63.2533 31.1311 64.3733C31.1311 65.5111 32.0555 66.4178 33.1755 66.4178C34.2955 66.4178 35.22 65.5111 35.22 64.3911Z" fill="#131313"/>
</svg>
