<svg width="505" height="505" viewBox="0 0 505 505" fill="none" xmlns="http://www.w3.org/2000/svg">
<g clip-path="url(#clip0_967_11403)">
<circle cx="252.5" cy="252.5" r="252.5" fill="#F5F7FA"/>
<g opacity="0.15">
<path d="M154.275 451.462C154.275 451.462 170.389 401.956 141.284 335.953C114.281 274.711 45.5872 130.857 41.7486 63.1736C41.5786 60.1749 37.6655 59.6748 36.6439 62.5279C25.6849 93.1303 3.88035 171.818 27.0222 265.731C56.8651 386.836 154.275 451.462 154.275 451.462Z" fill="#999999"/>
<path opacity="0.6" d="M39.4388 124.016C37.9056 131.04 37.2062 138.207 36.8873 145.357C36.8419 146.252 36.7804 147.147 36.7497 148.04L36.7076 150.722L36.625 156.089L36.7561 161.448C36.8144 163.233 36.8047 165.027 36.9682 166.801C37.8263 181.046 39.7869 195.195 42.9294 209.005C43.5786 212.499 44.5807 215.885 45.455 219.311C46.3827 222.717 47.1646 226.181 48.2947 229.514L51.4647 239.6C51.9569 241.296 52.6206 242.92 53.2213 244.571L55.0588 249.509L56.8964 254.446L57.8225 256.912L58.857 259.325L62.9951 268.979C63.6962 270.579 64.3486 272.214 65.0917 273.788L67.3114 278.517L71.7506 287.973C77.7765 300.52 83.8882 313.023 90.2962 325.345C93.4549 331.533 96.7074 337.662 99.9308 343.81L109.784 362.129C116.365 374.33 122.961 386.514 129.157 398.912C130.748 401.99 132.188 405.146 133.679 408.276C134.443 409.832 135.103 411.439 135.8 413.029C136.48 414.626 137.203 416.205 137.848 417.819C139.07 421.075 140.412 424.287 141.413 427.634C142.591 430.919 143.362 434.339 144.238 437.734L144.244 437.757C144.301 437.98 144.521 438.104 144.735 438.035C144.94 437.969 145.065 437.747 145.023 437.533C143.676 430.558 141.615 423.787 139.157 417.209C138.545 415.563 137.857 413.956 137.211 412.326C136.549 410.705 135.921 409.065 135.191 407.481C133.768 404.293 132.393 401.074 130.871 397.943C124.917 385.334 118.412 373.071 112.023 360.752L102.431 342.287C99.2525 336.123 96.0388 329.981 92.9254 323.781C86.6324 311.419 80.5288 298.952 74.5224 286.429L70.0993 276.991L67.8877 272.272C67.1479 270.701 66.4905 269.097 65.7879 267.511L61.6336 257.969L60.5942 255.584L59.6633 253.147L57.816 248.266C52.7291 235.319 48.7043 221.902 45.3546 208.293C41.9482 194.693 39.7059 180.727 38.5548 166.62C38.3541 164.862 38.333 163.085 38.2068 161.32L37.8991 156.012L37.8036 150.686L37.7567 148.021C37.7567 147.132 37.7891 146.242 37.8052 145.354C37.8554 143.575 37.8538 141.795 37.9461 140.016L38.265 134.678C38.584 131.127 38.8754 127.557 39.5359 124.037C39.5424 124.01 39.5262 123.98 39.5003 123.976C39.4744 123.969 39.4469 123.99 39.4404 124.016H39.4388Z" fill="white"/>
</g>
<g opacity="0.3">
<path d="M106.815 30.3654C107.827 28.1629 110.922 28.7633 110.985 31.1762C111.599 54.5027 115.021 115.551 133.865 151.869C164.545 211.002 173.812 297.684 136.922 332.977C136.922 332.977 -3.40136 270.27 106.815 30.3654Z" fill="#999999"/>
<path opacity="0.6" d="M103.643 62.7189C103.538 63.4148 103.497 64.0394 103.431 64.69L103.272 66.6255L102.995 70.4965C102.824 73.0777 102.68 75.659 102.541 78.2418C102.278 83.4059 102.076 88.5715 101.919 93.7372C101.618 104.069 101.571 114.398 101.676 124.722C101.773 135.045 102.123 145.357 102.672 155.651L102.871 159.512L103.118 163.369C103.295 165.939 103.426 168.513 103.643 171.078L104.244 178.78L104.954 186.467C106.951 206.95 109.96 227.305 114.336 247.304C114.472 247.929 114.599 248.557 114.744 249.18L115.193 251.044L116.088 254.771L116.984 258.498C117.298 259.736 117.642 260.965 117.969 262.198L118.964 265.894C119.305 267.122 119.603 268.367 119.987 269.581L122.19 276.899C125.302 286.589 128.822 296.126 132.96 305.346C133.015 305.469 133.156 305.517 133.272 305.456C133.389 305.394 133.439 305.248 133.389 305.127V305.124C129.469 295.815 126.071 286.266 123.118 276.551L120.991 269.233C120.618 268.019 120.333 266.775 120.005 265.546L119.048 261.85C118.734 260.617 118.4 259.39 118.101 258.152L117.243 254.427L116.384 250.701L115.955 248.839C115.816 248.217 115.696 247.589 115.567 246.965L114.021 239.467C113.521 236.963 113.085 234.444 112.614 231.934C112.386 230.676 112.143 229.422 111.929 228.163L111.314 224.376L110.699 220.589C110.488 219.327 110.287 218.065 110.116 216.794C108.581 206.67 107.427 196.475 106.369 186.266C104.331 165.835 103.285 145.265 102.858 124.665C102.66 114.363 102.654 104.049 102.83 93.734C102.913 88.5764 103.042 83.4172 103.23 78.258C103.332 75.6784 103.439 73.0988 103.573 70.5208L103.795 66.6546L103.926 64.724C103.98 64.088 104.024 63.4212 104.098 62.8354L104.104 62.7804C104.122 62.6444 104.032 62.5231 103.904 62.5101C103.777 62.4972 103.662 62.5927 103.641 62.7254L103.643 62.7189Z" fill="white"/>
</g>
<path d="M420.746 284.818C424.963 291.603 429.382 301.295 428.309 310.987C426.352 328.685 399.333 336.548 375.654 326.717C358.774 319.708 365.96 296.714 371.478 284.086C373.226 280.085 370.335 275.595 365.986 275.595H305V206.584C305 200.559 311.348 196.684 316.665 199.473C323.037 202.814 331.414 206.36 340.231 207.757C358.824 210.707 377.419 190.06 375.462 170.398C373.504 150.737 354.909 135.989 335.338 136.972C328.567 137.312 322.936 140.156 318.461 143.73C313.31 147.846 305.689 143.928 305.689 137.317V77H474.395C479.762 77 484.125 81.3467 484.165 86.7386C484.386 116.108 485.028 202.083 484.999 206.595L484.577 275.595H425.79C421.077 275.595 418.248 280.801 420.744 284.818H420.746Z" fill="#E8EBED"/>
<path d="M358.041 463.998H304.457V406.108C304.457 400.314 298.559 396.456 293.234 398.708C287.415 401.169 279.509 403.512 269.936 403.953C248.488 404.937 232.16 387.218 235.414 362.609C238.669 337.999 259.548 332.092 269.729 335.046C275.044 336.588 284.274 342.5 291.883 347.798C297.196 351.497 304.457 347.681 304.457 341.197V275H365.647C370.012 275 372.913 279.495 371.158 283.502C365.621 296.146 358.411 319.171 375.347 326.186C399.105 336.03 426.214 328.155 428.178 310.437C429.253 300.733 424.818 291.027 420.589 284.234C418.084 280.212 420.922 275 425.652 275H484.635C484.635 275 486.042 394.901 485.999 402.106L485.691 453.617C485.656 459.361 481.001 464 475.272 464H433.411C426.567 464 364.558 464 358.041 464V463.998Z" fill="#CCCCCC"/>
<path d="M187.757 463.998H142.825C135.741 463.998 130 458.267 130 451.195V408.77C130 402.516 130.124 344.429 130.124 338.067V273.97H189.403C194.288 273.97 197.155 268.424 194.265 264.49C180.391 245.598 192.498 218.709 202.857 214.159C215.134 208.767 240.178 207.296 247.544 234.751C251.38 249.049 247.861 259.493 243.607 266.217C241.072 270.222 243.878 275.443 248.623 275.443H305V341.379C305 347.838 297.737 351.638 292.423 347.954C284.812 342.676 275.579 336.788 270.264 335.251C260.082 332.31 239.198 338.193 235.941 362.706C232.686 387.218 249.018 404.867 270.47 403.887C280.048 403.448 287.955 401.114 293.774 398.662C299.1 396.419 305 400.262 305 406.034V463.696H252.46C245.721 463.696 194.796 464 187.757 464V463.998Z" fill="#999999"/>
<path d="M196.545 147.755C196.545 147.755 152.26 194.854 109.914 197.435C109.914 197.435 113.455 221.332 119.029 225.066C119.029 225.066 176.658 193.24 197.122 155.774L196.545 147.757V147.755Z" fill="#FFC3BD"/>
<path d="M252.411 204.729C256.227 198.699 259.382 189.335 255.943 176.512C249.337 151.893 226.88 153.211 215.871 158.048C206.583 162.129 195.726 186.24 208.168 203.181C210.759 206.709 208.189 211.682 203.808 211.682H150.653L149 40.1543C148.968 36.7434 151.744 33.9694 155.161 34.0003L301.416 35.3306C305.109 35.3649 308.083 38.3621 308.083 42.0494V89.3347C308.083 95.3068 314.987 98.6867 319.682 94.9875C323.69 91.8289 328.725 89.3279 334.763 89.0275C352.377 88.1486 369.11 101.337 370.872 118.922C372.633 136.507 355.9 154.972 339.168 152.334C331.233 151.082 323.696 147.912 317.961 144.923C313.176 142.429 307.463 145.895 307.463 151.283V213H256.909C252.654 213 250.14 208.321 252.411 204.728V204.729Z" fill="#DB1F26"/>
<path d="M90.8046 145.705C90.8046 145.705 82.9758 149.51 81.5376 153.883C80.3831 157.39 71.7268 157.843 70.8722 164.742C70.4313 168.304 67.7934 171.157 64.2431 171.701C55.4026 173.056 41.7794 177.645 39.5987 192.987C37.9346 204.697 43.9078 209.138 50.1755 210.675C54.7792 211.804 57.8381 216.279 56.9076 220.926C56.015 225.382 57.3466 230.534 65.0688 234.607C82.3759 243.734 99.6596 212.981 99.6596 212.981L103.201 159.283L90.8028 145.705H90.8046Z" fill="#333333"/>
<path d="M19.6671 482.414L18.5469 491.617C18.3337 493.364 16.9587 494.744 15.2116 494.944C12.2593 495.282 7.52371 495.627 2.88932 495.137C0.854887 494.922 -0.465869 492.864 0.153857 490.915C1.28309 487.362 3.35005 482.029 6.32943 478.89H16.5431C18.4312 478.89 19.8947 480.541 19.6671 482.416V482.414Z" fill="#333333"/>
<path d="M99.6587 374.608L101.382 384.744C101.382 384.744 95.6097 443.192 94.5834 466.571C94.4226 470.238 95.3712 473.859 97.2954 476.983L107.334 493.277L81.8221 478.229L81.3144 475.117L85.4899 469.378L80.019 403.9C79.6974 400.053 80.4924 396.196 82.3064 392.79L87.5822 382.88L99.6569 374.607L99.6587 374.608Z" fill="#FFC3BD"/>
<path d="M109.012 495.638H100.871C99.348 495.638 97.9098 494.939 96.9811 493.73C94.4426 490.434 89.1849 484.003 86.6699 483.835C83.2858 483.609 83.7176 495.638 83.7176 495.638H81.8205L79.4174 480.691C78.8122 476.931 80.684 473.205 84.0627 471.442C84.0627 471.442 84.836 477.162 89.0313 479.692C93.2267 482.222 106.104 491.283 106.104 491.283C106.104 491.283 107.681 491.059 109.412 491.372C111.981 491.836 111.621 495.638 109.011 495.638H109.012Z" fill="#333333"/>
<path d="M64.7163 379.421C64.7163 379.421 30.897 443.544 25.5219 458.186C20.1467 472.826 18.2622 485.04 18.19 486.196C18.0779 488.003 15.8285 489.735 9.62945 489.735C6.43145 489.735 4.86316 488.453 4.09709 487.212C3.44304 486.154 3.40871 484.83 3.95978 483.714C5.91652 479.757 12.1246 467.11 14.4228 461.374C17.1673 454.525 23.0719 423.489 26.3114 412.698C29.5492 401.906 33.2097 390.202 47.3134 379.42C47.3134 379.42 56.9941 369.942 64.7145 379.42L64.7163 379.421Z" fill="#FFC3BD"/>
<path d="M86.0826 274.352C94.8057 237.403 72.707 216.503 72.707 216.503C86.6517 203.124 112.059 197.036 112.059 197.036C112.059 197.036 136.302 214.753 133.426 228.62C131.74 236.747 116.384 277.303 116.384 277.303C116.384 277.303 102.185 284.02 86.0826 274.352Z" fill="url(#paint0_linear_967_11403)"/>
<path d="M66.7401 292.645C70.2904 281.954 86.0817 274.352 86.0817 274.352C102.184 284.02 116.383 277.303 116.383 277.303C116.383 277.303 119.567 289.469 117.37 300.776C115.173 312.082 101.383 384.746 101.383 384.746C79.6567 389.147 46.2422 380.319 46.2422 380.319C60.0803 355.759 63.1898 303.339 66.7401 292.647V292.645Z" fill="#333333"/>
<path d="M96.2079 172.617L89.1145 204.462C88.4352 207.267 90.9936 206.808 93.8302 206.274C98.4772 205.398 104.465 203.595 106.467 199.982C106.671 199.613 106.772 199.198 106.83 198.782L109.876 176.7C110.118 174.948 109.17 173.247 107.553 172.532L101.673 169.926C99.4095 168.921 96.7897 170.213 96.2061 172.62L96.2079 172.617Z" fill="#FFC3BD"/>
<path d="M68.7844 226.339C68.7844 226.339 133.66 305.524 182.131 215.362C182.131 215.362 183.061 213.057 182.48 209.731C182.185 208.051 183.298 202.091 183.909 199.046C184.106 198.067 183.41 197.143 182.414 197.047C181.636 196.973 180.871 197.298 180.389 197.914L171.536 209.183C170.876 211.416 171.939 213.794 174.042 214.791C175.384 215.427 175.807 217.13 174.905 218.311C138.044 266.611 76.3891 213.61 75.2617 214.233C71.2578 216.442 66.6343 218.883 68.7844 226.339Z" fill="#FFC3BD"/>
<path d="M104.528 142.297C104.528 142.297 112.928 145.842 118.639 157.975C124.35 170.108 120.086 175.71 114.728 176.48C109.37 177.249 101.357 177.132 92.8836 169.294C84.4098 161.455 93.6081 138.094 104.528 142.297Z" fill="#FFC3BD"/>
<path d="M98.581 162.815C98.581 162.815 92.2428 145.064 107.989 144.854L111.695 147.442C111.695 147.442 117.471 137.601 107.989 132.902C98.5069 128.205 87.4097 132.084 83.3751 144.854C79.3406 157.623 78.6504 166.171 85.3644 172.281C92.0766 178.391 94.8445 171.463 94.8445 171.463C94.8445 171.463 91.1894 165.748 92.6764 162.691C94.1652 159.633 97.5963 163.323 97.5963 163.323L98.581 162.815Z" fill="#333333"/>
<path d="M420.507 482.768C420.507 482.768 421.893 490.196 422.609 497.556C422.889 500.433 420.692 502.952 417.804 503.1C407.995 503.602 387.011 504.597 379.475 504.332C378.343 504.292 377.591 503.14 377.999 502.083C378.342 501.198 379.013 500.478 379.871 500.073L414.393 483.813L420.507 482.766V482.768Z" fill="#333333"/>
<path d="M421.544 478.386L420.572 487.297C420.572 487.297 414.525 490.181 410.348 487.039L412.769 477.097L421.544 478.388V478.386Z" fill="#FFC3BD"/>
<path d="M419.153 311.06C419.632 313.38 422.709 427.027 411.041 478.079C410.851 478.912 411.279 479.764 412.074 480.08C413.946 480.825 417.612 481.892 421.993 481.997C423.35 482.029 424.557 481.137 424.928 479.831C428.29 467.98 444.374 408.609 446.006 352.022C447.829 288.793 445.986 349.869 445.986 349.869L444.19 310.814L419.155 311.058L419.153 311.06Z" fill="#333333"/>
<path d="M460.431 486.27C460.431 486.27 462.559 490.006 464.682 499.968C465.065 501.767 463.822 503.505 461.992 503.703C458.754 504.052 453.769 504.511 449.775 504.52C447.932 504.525 446.479 502.936 446.683 501.104C447.092 497.456 448.412 491.466 452.628 486.766L460.431 486.27Z" fill="#333333"/>
<path d="M462.16 474.805L459.82 488.289C459.82 488.289 457.397 490.127 452.555 488.858L453.595 474.364L462.16 474.805Z" fill="#FFC3BD"/>
<path d="M467.296 314.088C477.81 373.965 466.554 462.333 462.64 479.645C462.4 480.705 461.554 481.523 460.483 481.711C458.665 482.031 455.668 482.305 452.705 481.475C451.684 481.189 450.959 480.277 450.907 479.219C450.226 465.26 450.394 379.519 440.807 345.726C440.321 344.014 439.259 342.526 437.797 341.509L419.697 328.905L418.121 308.267L467.296 314.09V314.088Z" fill="#333333"/>
<path d="M402.867 201.06C432.654 200.283 465.606 208.282 465.606 208.282C474.981 259.992 468.224 319.804 468.224 319.804C445.218 326.07 419.106 316.575 419.106 316.575C415.067 294.963 396.599 234.206 396.599 234.206C382.026 232.539 369.995 228.455 360.066 222.999C367.516 214.2 370.961 203.061 372.439 196.482C383.003 199.653 393.68 201.3 402.867 201.06Z" fill="url(#paint1_linear_967_11403)"/>
<path d="M314.449 158.035C317.342 154.473 321.062 156.11 321.062 156.11C325.622 174.58 348.755 189.369 372.441 196.482C370.962 203.061 367.516 214.2 360.069 222.999C320.665 201.345 314.451 158.035 314.451 158.035H314.449Z" fill="#FFC3BD"/>
<path d="M315.167 158.927C314.87 159.902 318.43 161.351 320.48 157.352C320.535 155.443 321.617 147.262 320.462 145.718C314.31 137.5 302.438 127.238 302.438 127.238C300.467 129.22 302.125 131.132 302.125 131.132L307.894 137.025C306.72 139.194 305.28 141.031 304.622 143.646C304.124 145.627 304.46 147.737 305.477 149.527C306.496 151.322 307.887 153.657 309.197 155.481C311.678 158.934 315.168 158.927 315.168 158.927H315.167Z" fill="#FFC3BD"/>
<path d="M310.428 140.859L315.674 145.221L317.351 149.597L312.76 154.788C312.76 154.788 311.116 146.09 309.94 144.215C308.762 142.34 309.354 141.423 310.429 140.861L310.428 140.859Z" fill="#FFC3BD"/>
<path d="M454.453 237.226L465.605 208.282C465.605 208.282 493.613 226.917 498.417 250.836C493.163 251.273 483.609 252.732 474.288 257.547C472.122 246.252 454.453 237.226 454.453 237.226Z" fill="url(#paint2_linear_967_11403)"/>
<path d="M430.394 264.59C430.394 264.59 461.805 281.943 472.203 266.77C474.362 263.621 474.855 260.505 474.288 257.545C483.607 252.728 493.163 251.271 498.417 250.834C499.866 258.045 499.21 265.735 495.037 273.541C476.893 307.482 426.332 272.331 426.332 272.331L430.394 264.592V264.59Z" fill="#FFC3BD"/>
<path d="M432.81 176.595L442.551 203.908C442.711 204.359 442.531 204.865 442.112 205.102C439.54 206.554 430.272 210.771 418.985 203.769C417.809 203.039 417.001 201.838 416.811 200.469L413.516 176.781L432.81 176.597V176.595Z" fill="#FFC3BD"/>
<path d="M436.812 292.013L419.7 232.282C419.505 231.605 418.927 231.11 418.226 231.027C415.125 230.666 406.142 229.651 395.769 228.773C383.275 227.717 368.767 226.861 360.096 227.589C358.864 227.692 358.119 228.995 358.667 230.104C363.598 240.075 383.877 280.632 394.033 293.919C394.369 294.359 394.889 294.616 395.444 294.61L435.144 294.242C436.299 294.231 437.126 293.124 436.808 292.013H436.812Z" fill="#333333"/>
<path d="M432.678 277.581C432.678 277.581 435.061 267.784 434.1 264.309C433.139 260.832 431.276 256.364 425.066 257.357C418.856 258.351 411.531 260.966 411.531 260.966C411.531 260.966 411.902 265.493 416.621 264.032L413.694 266.295C413.694 266.295 414.111 269.92 418.099 267.984L415.376 270.986C415.376 270.986 417.089 273.964 420.021 272.053C422.954 270.144 424.359 278.762 432.678 277.581Z" fill="#FFC3BD"/>
<path d="M396.913 246.604C396.913 249.376 394.663 251.625 391.89 251.625C389.117 251.625 386.867 249.376 386.867 246.604C386.867 243.832 389.117 241.583 391.89 241.583C394.663 241.583 396.913 243.832 396.913 246.604Z" fill="#737373"/>
<path d="M412.553 146.041C412.231 146.422 400.762 177.271 400.762 177.271L418.522 183.442L433.739 155.817C433.739 155.817 417.924 139.667 412.551 146.039L412.553 146.041Z" fill="#FFC3BD"/>
<path d="M426.378 157.385C426.768 158.125 426.794 159.001 426.449 159.763L419.677 174.713C419.574 174.941 419.446 175.151 419.283 175.338C418.392 176.382 415.288 179.481 412.22 176.108C409.606 173.233 407.163 170.625 404.764 169.711C403.362 169.176 401.799 169.913 401.282 171.32C400.216 174.219 398.185 180.11 397.116 185.598C396.848 186.975 397.697 188.318 399.049 188.692C402.615 189.678 409.635 191.394 415.706 191.528C416.703 191.549 417.626 191.024 418.118 190.157C420.28 186.341 426.385 175.667 428.573 172.918C430.606 170.365 434.944 170.737 436.919 171.065C437.669 171.19 438.429 171 439.029 170.536C440.832 169.145 443.879 165.848 440.214 161.286C439.304 160.151 439.508 158.477 440.623 157.544C442.621 155.871 444.661 152.927 441.924 148.862C439.152 144.746 435.063 144.82 432.348 145.476C431.146 145.766 429.834 145.27 429.236 144.19C428.971 143.709 428.508 143.326 427.726 143.26C426.248 143.133 425.148 141.923 425.263 140.446C425.462 137.912 424.725 134.735 420.515 133.019C412.795 129.87 407.19 137.105 406.209 142.779C405.228 148.454 413.792 151.392 418.97 151.448C422.775 151.49 425.305 155.342 426.38 157.385H426.378Z" fill="#333333"/>
<path d="M426.016 178.418C426.016 178.418 428.149 168.605 432.321 168.474C436.493 168.342 440.221 172.08 435.637 177.298C429.935 183.787 426.016 178.419 426.016 178.419V178.418Z" fill="#FFC3BD"/>
</g>
<defs>
<linearGradient id="paint0_linear_967_11403" x1="235.498" y1="-48.9777" x2="199.031" y2="27.6368" gradientUnits="userSpaceOnUse">
<stop stop-color="#FD928E"/>
<stop offset="1" stop-color="#DB1F26"/>
</linearGradient>
<linearGradient id="paint1_linear_967_11403" x1="459.539" y1="54.6089" x2="443.13" y2="133.038" gradientUnits="userSpaceOnUse">
<stop stop-color="#FD928E"/>
<stop offset="1" stop-color="#DB1F26"/>
</linearGradient>
<linearGradient id="paint2_linear_967_11403" x1="513.725" y1="65.9453" x2="497.316" y2="144.375" gradientUnits="userSpaceOnUse">
<stop stop-color="#FD928E"/>
<stop offset="1" stop-color="#DB1F26"/>
</linearGradient>
<clipPath id="clip0_967_11403">
<rect width="505" height="505" fill="white"/>
</clipPath>
</defs>
</svg>
