<svg width="213" height="42" viewBox="0 0 213 42" fill="none" xmlns="http://www.w3.org/2000/svg">
<g clip-path="url(#clip0_1307_4384)">
<path fill-rule="evenodd" clip-rule="evenodd" d="M20 0C8.94118 0 0 8.94118 0 20C0 31.0252 8.94118 40 20 40C31.0252 40 40 31.0588 40 20C39.9664 8.94118 31.0252 0 20 0ZM29.479 29.479H24.7395V20C24.7395 19.3277 24.605 18.7227 24.3697 18.1513C24.1008 17.5798 23.7647 17.0756 23.3613 16.6387C22.9244 16.2017 22.4202 15.8655 21.8487 15.6303C21.2773 15.3613 20.6723 15.2605 20 15.2605C19.3277 15.2605 18.7227 15.395 18.1513 15.6303C17.5798 15.8992 17.0756 16.2353 16.6387 16.6387C16.2017 17.0756 15.8655 17.5798 15.6303 18.1513C15.3613 18.7227 15.2605 19.3277 15.2605 20C15.2605 20.6723 15.395 21.2773 15.6303 21.8487C15.8992 22.4202 16.2353 22.9244 16.6387 23.3613C17.0756 23.7983 17.5798 24.1345 18.1513 24.3697C18.7227 24.6387 19.3277 24.7395 20 24.7395V29.479C18.6891 29.479 17.4454 29.2437 16.3025 28.7395C15.1597 28.2353 14.1513 27.563 13.2773 26.7227C12.4034 25.8487 11.7311 24.874 11.2605 23.6975C10.7563 22.5546 10.521 21.3109 10.521 20C10.521 18.6891 10.7563 17.4454 11.2605 16.3025C11.7647 15.1597 12.437 14.1513 13.2773 13.2773C14.1513 12.4034 15.1261 11.7311 16.3025 11.2605C17.4454 10.7563 18.6891 10.521 20 10.521C21.3109 10.521 22.5546 10.7563 23.6975 11.2605C24.8403 11.7647 25.8487 12.437 26.7227 13.2773C27.5966 14.1513 28.2689 15.1597 28.7395 16.3025C29.2437 17.4454 29.479 18.6891 29.479 20V29.479Z" fill="#DB1F26"/>
<path fill-rule="evenodd" clip-rule="evenodd" d="M168.105 11.5864C168.071 11.5864 168.071 11.5864 168.071 11.5531C167.833 11.42 167.594 11.3201 167.356 11.2203C166.334 10.7876 165.244 10.5547 164.086 10.4881C163.95 10.4881 163.779 10.4881 163.609 10.4881C162.281 10.4881 161.02 10.7211 159.862 11.2203C158.704 11.7195 157.682 12.3851 156.796 13.2171C155.911 14.0824 155.23 15.0475 154.753 16.2124C154.242 17.3439 154.003 18.5753 154.003 19.8732V20.3391C154.071 21.4707 154.31 22.5357 154.753 23.5341C154.855 23.767 154.957 24 155.093 24.233C155.093 24.233 155.093 24.2662 155.127 24.2662C155.57 25.0983 156.149 25.8637 156.831 26.5293C157.273 26.962 157.75 27.3613 158.261 27.6941C158.806 28.0602 159.419 28.3597 160.032 28.626C161.225 29.0919 162.417 29.3249 163.643 29.3249C164.869 29.3249 166.096 29.0919 167.254 28.626C168.446 28.1601 169.502 27.4612 170.422 26.5626L167.015 23.2345C166.538 23.7005 166.027 24.0333 165.414 24.2662C164.835 24.4992 164.222 24.599 163.609 24.599C163.064 24.599 162.553 24.4992 162.042 24.3328C162.042 24.3328 162.042 24.3328 162.008 24.3328C161.974 24.3328 161.974 24.3328 161.94 24.2995C161.872 24.2662 161.804 24.233 161.736 24.1997C161.156 23.9334 160.646 23.6006 160.203 23.2013C159.794 22.8019 159.487 22.3693 159.215 21.8368C159.181 21.7702 159.181 21.7369 159.147 21.6704C158.908 21.1046 158.806 20.5055 158.806 19.9065C158.806 19.3074 158.908 18.7084 159.147 18.1426C159.215 17.9429 159.317 17.7433 159.419 17.5436C159.453 17.5103 159.453 17.477 159.453 17.477C159.453 17.477 159.453 17.477 159.453 17.4437C159.658 17.1109 159.896 16.8447 160.169 16.5784C160.441 16.3122 160.748 16.0792 161.054 15.8796H161.088C161.122 15.8463 161.156 15.8463 161.156 15.8463C161.361 15.7464 161.565 15.6466 161.77 15.58C162.349 15.3471 162.962 15.2472 163.575 15.2472C164.188 15.2472 164.801 15.3471 165.38 15.58C165.448 15.6133 165.482 15.6133 165.551 15.6466C165.585 15.6466 165.619 15.6799 165.653 15.7132L161.77 18.9414L164.869 22.5024L168.378 19.607L172.431 16.2124C171.92 15.0808 171.239 14.0824 170.387 13.2171C169.706 12.5848 168.957 12.0523 168.105 11.5864ZM113.503 8.65769H118.306V3H113.503V8.65769ZM113.503 29.3249H118.306V10.5214H113.503V29.3249ZM146.203 26.5626C147.089 27.4279 148.076 28.0935 149.269 28.5594C150.427 29.0586 151.687 29.2916 153.015 29.2916V24.599C152.334 24.599 151.721 24.4659 151.142 24.233C150.563 23.9667 150.052 23.6339 149.609 23.2345C149.166 22.8019 148.826 22.3027 148.553 21.7369C148.281 21.1712 148.179 20.5721 148.179 19.9065V16.8447H151.517V12.1521H148.179V3H143.376V19.9065C143.376 21.2044 143.614 22.4358 144.125 23.5674C144.636 24.7322 145.317 25.7306 146.203 26.5626ZM186.942 23.2345C186.465 23.7005 185.954 24.0333 185.341 24.2662C184.762 24.4992 184.149 24.599 183.536 24.599C182.923 24.599 182.309 24.4992 181.73 24.2662C181.151 24.0333 180.606 23.7005 180.129 23.2345C179.653 22.7686 179.312 22.2694 179.073 21.6704C178.835 21.1046 178.733 20.5055 178.733 19.9065C178.733 19.3074 178.835 18.7084 179.073 18.1426C179.312 17.5769 179.653 17.0444 180.129 16.5784C180.606 16.1125 181.117 15.7797 181.73 15.5468C182.309 15.3138 182.923 15.2139 183.536 15.2139C184.149 15.2139 184.762 15.3138 185.341 15.5468C185.92 15.7797 186.465 16.1125 186.942 16.5784L190.348 13.2504C189.395 12.3185 188.339 11.6529 187.18 11.187C185.988 10.7211 184.796 10.4881 183.57 10.4881C182.344 10.4881 181.117 10.7211 179.959 11.187C178.767 11.6529 177.711 12.3518 176.791 13.2504C175.838 14.1823 175.156 15.2139 174.679 16.3455C174.203 17.5103 173.964 18.6751 173.964 19.8732C173.964 21.0713 174.203 22.2694 174.679 23.401C175.156 24.5658 175.872 25.5975 176.791 26.496C177.745 27.4279 178.801 28.0935 179.959 28.5594C181.151 29.0254 182.344 29.2583 183.57 29.2583C184.796 29.2583 186.022 29.0254 187.18 28.5594C188.373 28.0935 189.429 27.3946 190.348 26.496L186.942 23.2345ZM212.251 16.2456C211.74 15.1141 211.058 14.1157 210.207 13.2504C209.321 12.3851 208.299 11.7195 207.141 11.2536C205.983 10.7544 204.723 10.5214 203.394 10.5214C201.657 10.5214 200.056 10.954 198.591 11.7861V3H193.789V29.3249H198.591V19.9065C198.591 19.2409 198.728 18.6418 198.966 18.0761C199.239 17.5103 199.579 17.0111 199.988 16.5784C200.431 16.1458 200.942 15.813 201.521 15.58C202.1 15.3138 202.713 15.2139 203.394 15.2139C204.076 15.2139 204.689 15.3471 205.268 15.58C205.847 15.8463 206.358 16.1791 206.801 16.5784C207.243 17.0111 207.584 17.5103 207.822 18.0761C208.095 18.6418 208.197 19.2409 208.197 19.9065V29.2916H213V19.9065C213 18.6086 212.762 17.4105 212.251 16.2456ZM64.4182 13.2837C63.5326 12.4184 62.5107 11.7528 61.3526 11.2868C60.1945 10.7876 58.9341 10.5547 57.6057 10.5547C56.2772 10.5547 55.0169 10.7876 53.8588 11.2868C52.7007 11.7861 51.6788 12.4517 50.7931 13.2837C49.9075 14.149 49.2263 15.1141 48.7494 16.2789C48.2384 17.4105 48 18.6418 48 19.9398C48 21.2377 48.2384 22.4691 48.7494 23.6006C49.2603 24.7322 49.9416 25.7306 50.7931 26.5959C51.6788 27.4612 52.6666 28.1268 53.8588 28.5927C55.0169 29.0919 56.2772 29.3249 57.6057 29.3249V24.599C56.9244 24.599 56.3113 24.4659 55.7322 24.233C55.1532 23.9667 54.6422 23.6339 54.1994 23.2345C53.7566 22.8019 53.416 22.3027 53.1775 21.7369C52.905 21.1712 52.8029 20.5721 52.8029 19.9065C52.8029 19.2409 52.9391 18.6418 53.1775 18.0761C53.45 17.5103 53.7907 17.0111 54.1994 16.5784C54.6422 16.1458 55.1532 15.813 55.7322 15.58C56.3113 15.3138 56.9244 15.2139 57.6057 15.2139C58.287 15.2139 58.9001 15.3471 59.4791 15.58C60.0582 15.8463 60.5692 16.1791 61.012 16.5784C61.4548 17.0111 61.7954 17.5103 62.0339 18.0761C62.3064 18.6418 62.4085 19.2409 62.4085 19.9065V29.2916H67.2114V19.9065C67.2114 18.6086 66.973 17.3772 66.462 16.2456C65.9511 15.1141 65.2698 14.1157 64.4182 13.2837ZM83.6296 19.9065C83.6296 20.5721 83.4934 21.1712 83.255 21.7369C82.9824 22.3027 82.6418 22.8019 82.2331 23.2345C81.7903 23.6672 81.2793 24 80.7002 24.233C80.1212 24.4992 79.5081 24.599 78.8268 24.599C78.1455 24.599 77.5324 24.4659 76.9533 24.233C76.3743 23.9667 75.8633 23.6339 75.4205 23.2345C74.9777 22.8019 74.6371 22.3027 74.3986 21.7369C74.1261 21.1712 74.0239 20.5721 74.0239 19.9065V10.5214H69.2211V19.9065C69.2211 21.2044 69.4595 22.4358 69.9705 23.5674C70.4814 24.6989 71.1627 25.6973 72.0142 26.5626C72.8999 27.4279 73.8877 28.0935 75.0799 28.5594C76.238 29.0586 77.4983 29.2916 78.8268 29.2916C80.1552 29.2916 81.4156 29.0586 82.5737 28.5594C83.7318 28.0602 84.7537 27.3946 85.6393 26.5626C86.525 25.6973 87.2062 24.7322 87.6831 23.5674C88.1941 22.4358 88.4325 21.2044 88.4325 19.9065V10.5214H83.6296V19.9065ZM104.851 19.9065C104.851 20.5721 104.714 21.1712 104.476 21.7369C104.204 22.3027 103.863 22.8019 103.454 23.2345C103.011 23.6672 102.5 24 101.921 24.233C101.342 24.4992 100.729 24.599 100.048 24.599C99.3666 24.599 98.7535 24.4659 98.1744 24.233C97.5954 23.9667 97.0844 23.6339 96.6416 23.2345C96.1988 22.8019 95.8582 22.3027 95.6197 21.7369C95.3472 21.1712 95.245 20.5721 95.245 19.9065C95.245 19.2409 95.3813 18.6418 95.6197 18.0761C95.8922 17.5103 96.2329 17.0111 96.6416 16.5784C97.0844 16.1458 97.5954 15.813 98.1744 15.58C98.7535 15.3138 99.3666 15.2139 100.048 15.2139V10.5214C98.7194 10.5214 97.4591 10.7544 96.301 11.2536C95.1428 11.7528 94.121 12.4184 93.2353 13.2504C92.3497 14.1157 91.6684 15.0808 91.1916 16.2456C90.6806 17.3772 90.4422 18.6086 90.4422 19.9065C90.4422 21.2044 90.6806 22.4358 91.1916 23.5674C91.7025 24.6989 92.3838 25.6973 93.2353 26.5626C94.121 27.4279 95.1088 28.0935 96.301 28.5594C97.4591 29.0586 98.7194 29.2916 100.048 29.2916C101.376 29.2916 102.637 29.0586 103.795 28.5594C104.953 28.0602 105.975 27.3946 106.86 26.5626C107.746 25.6973 108.427 24.7322 108.904 23.5674C109.415 22.4358 109.654 21.2044 109.654 19.9065V3H104.851V19.9065ZM141.366 19.9065C141.366 18.6086 141.128 17.3772 140.617 16.2456C140.106 15.1141 139.424 14.1157 138.573 13.2504C137.687 12.3851 136.665 11.7195 135.507 11.2536C134.349 10.7544 133.089 10.5214 131.76 10.5214C130.432 10.5214 129.172 10.7544 128.013 11.2536C126.855 11.7528 125.833 12.4184 124.948 13.2504C124.062 14.1157 123.381 15.0808 122.904 16.2456C122.393 17.3772 122.155 18.6086 122.155 19.9065C122.155 21.2044 122.393 22.4358 122.904 23.5674C123.415 24.6989 124.096 25.6973 124.948 26.5626C125.833 27.4279 126.821 28.0935 128.013 28.5594C129.172 29.0586 130.432 29.2916 131.76 29.2916C133.089 29.2916 134.349 29.0586 135.507 28.5594C136.665 28.0602 137.687 27.3946 138.573 26.5626C139.459 25.6973 140.14 24.7322 140.617 23.5674C141.128 22.4358 141.366 21.2044 141.366 19.9065ZM136.188 21.7369C135.916 22.3027 135.575 22.8019 135.167 23.2345C134.724 23.6672 134.213 24 133.634 24.233C133.055 24.4992 132.442 24.599 131.76 24.599C131.079 24.599 130.466 24.4659 129.887 24.233C129.308 23.9667 128.797 23.6339 128.354 23.2345C127.911 22.8019 127.571 22.3027 127.332 21.7369C127.06 21.1712 126.957 20.5721 126.957 19.9065C126.957 19.2409 127.094 18.6418 127.332 18.0761C127.605 17.5103 127.945 17.0111 128.354 16.5784C128.797 16.1458 129.308 15.813 129.887 15.58C130.466 15.3138 131.079 15.2139 131.76 15.2139C132.442 15.2139 133.055 15.3471 133.634 15.58C134.213 15.8463 134.724 16.1791 135.167 16.5784C135.609 17.0111 135.95 17.5103 136.188 18.0761C136.461 18.6418 136.563 19.2409 136.563 19.9065C136.563 20.5721 136.461 21.1712 136.188 21.7369ZM142.252 35.71C141.775 35.71 141.4 35.8764 141.128 36.1759V33.9794H140.242V40.2694H141.128V37.8732C141.128 36.9746 141.502 36.542 142.252 36.542C143.001 36.542 143.376 36.9746 143.376 37.9065V40.2694H144.261V37.9065C144.261 37.1743 144.091 36.6086 143.716 36.2425C143.376 35.8764 142.865 35.71 142.252 35.71ZM147.634 35.71C146.986 35.71 146.407 35.9429 145.964 36.4089C145.522 36.8748 145.283 37.4073 145.283 38.0396C145.283 38.6719 145.522 39.2377 145.964 39.6704C146.407 40.1363 146.986 40.336 147.634 40.336C148.11 40.336 148.519 40.2029 148.894 39.9699C149.269 39.7369 149.575 39.4041 149.78 39.038H148.69C148.417 39.3376 148.042 39.4707 147.6 39.4707C147.225 39.4707 146.918 39.3708 146.68 39.1379C146.407 38.9382 146.271 38.6387 146.237 38.3059H149.95C149.984 38.1727 149.984 38.0396 149.984 37.9065C149.95 37.2409 149.711 36.7084 149.235 36.2758C148.792 35.9097 148.247 35.71 147.634 35.71ZM146.237 37.607C146.339 37.2742 146.475 37.0412 146.748 36.8415C146.986 36.6418 147.293 36.542 147.634 36.542C147.974 36.542 148.247 36.6418 148.519 36.8415C148.758 37.0412 148.928 37.3074 149.03 37.607H146.237ZM153.322 35.71C152.675 35.71 152.096 35.9429 151.653 36.3756C151.176 36.8415 150.972 37.374 150.972 38.0063C150.972 38.6387 151.21 39.2044 151.653 39.6371C152.13 40.103 152.675 40.3027 153.322 40.3027C153.629 40.3027 153.935 40.2361 154.208 40.0697C154.48 39.9366 154.685 39.7369 154.787 39.504V40.2029H155.706V37.9398C155.706 37.3074 155.468 36.7417 155.025 36.309C154.548 35.9097 153.969 35.71 153.322 35.71ZM154.378 39.0713C154.105 39.3376 153.765 39.504 153.322 39.504C152.913 39.504 152.539 39.3708 152.266 39.0713C151.994 38.7718 151.823 38.439 151.823 38.0396C151.823 37.6403 151.96 37.2742 152.232 37.0079C152.505 36.7417 152.879 36.5753 153.288 36.5753C153.697 36.5753 154.037 36.7084 154.344 37.0079C154.616 37.2742 154.753 37.6403 154.753 38.0396C154.787 38.439 154.65 38.7718 154.378 39.0713ZM157.341 36.309C157.001 36.6751 156.796 37.2076 156.796 37.9398V40.3027H157.716V37.9398C157.716 37.0745 158.057 36.6418 158.738 36.6418H158.84V35.7433H158.738C158.159 35.7433 157.716 35.9429 157.341 36.309ZM160.441 34.0792C160.271 34.0792 160.135 34.1458 160.032 34.2456C159.93 34.3455 159.862 34.4786 159.862 34.645C159.862 34.7781 159.93 34.9113 160.032 35.0111C160.135 35.1109 160.271 35.1775 160.441 35.1775C160.577 35.1775 160.714 35.1109 160.816 35.0111C160.918 34.9113 160.986 34.7781 160.986 34.645C160.986 34.4786 160.918 34.3788 160.816 34.2456C160.714 34.1125 160.611 34.0792 160.441 34.0792ZM159.998 40.2694H160.918V35.7765H159.998V40.2694ZM164.154 35.71C163.541 35.71 163.064 35.9097 162.689 36.2758C162.315 36.6418 162.144 37.2076 162.144 37.9398V40.3027H163.03V37.9398C163.03 37.0412 163.405 36.5753 164.154 36.5753C164.903 36.5753 165.278 37.0079 165.278 37.9398V40.3027H166.198V37.9398C166.198 37.2076 166.027 36.6418 165.653 36.2758C165.244 35.8764 164.767 35.71 164.154 35.71ZM169.536 35.71C168.889 35.71 168.31 35.9429 167.867 36.3756C167.39 36.8415 167.186 37.374 167.186 38.0063C167.186 38.6387 167.424 39.2044 167.867 39.6371C168.344 40.103 168.889 40.3027 169.536 40.3027C170.115 40.3027 170.592 40.103 171.001 39.7036V39.9033C171.001 40.2694 170.864 40.5689 170.592 40.8019C170.319 41.0349 169.979 41.168 169.57 41.168C169.127 41.168 168.787 41.0016 168.48 40.6355H167.39C167.56 41.0681 167.867 41.401 168.242 41.6339C168.65 41.9002 169.059 42 169.536 42C170.183 42 170.762 41.767 171.205 41.3344C171.682 40.8685 171.886 40.336 171.886 39.7036V37.9731C171.886 37.3407 171.648 36.775 171.205 36.3423C170.762 35.9097 170.183 35.71 169.536 35.71ZM170.592 39.0713C170.319 39.3376 169.979 39.504 169.536 39.504C169.127 39.504 168.752 39.3708 168.48 39.0713C168.207 38.7718 168.037 38.439 168.037 38.0396C168.037 37.6403 168.173 37.2742 168.446 37.0079C168.718 36.7417 169.093 36.5753 169.502 36.5753C169.911 36.5753 170.251 36.7084 170.558 37.0079C170.83 37.2742 170.967 37.6403 170.967 38.0396C171.001 38.439 170.864 38.7718 170.592 39.0713ZM178.46 37.7734C178.188 37.7068 177.949 37.6403 177.677 37.5737C177.404 37.5404 177.2 37.4739 177.03 37.374C176.859 37.2742 176.757 37.1743 176.757 37.0079C176.757 36.8415 176.825 36.7084 176.962 36.6086C177.098 36.5087 177.302 36.4422 177.507 36.4422C177.745 36.4422 177.949 36.5087 178.086 36.6086C178.256 36.7084 178.324 36.8415 178.324 37.0079H179.176C179.176 36.5753 179.005 36.2425 178.699 36.0095C178.392 35.7765 177.983 35.6434 177.473 35.6434C176.996 35.6434 176.587 35.7765 176.246 36.0095C175.906 36.2425 175.769 36.542 175.769 36.9081C175.769 37.2409 175.872 37.5071 176.042 37.6735C176.212 37.8732 176.451 38.0063 176.689 38.0729C176.962 38.1395 177.2 38.206 177.473 38.2393C177.745 38.3059 177.949 38.3724 178.12 38.4723C178.29 38.5721 178.392 38.7052 178.392 38.9049C178.392 39.0713 178.324 39.2377 178.154 39.3376C177.983 39.4374 177.779 39.504 177.507 39.504C177.234 39.504 176.996 39.4374 176.825 39.3376C176.655 39.2377 176.553 39.0713 176.553 38.8716H175.701C175.701 39.3043 175.872 39.6704 176.212 39.9033C176.553 40.1696 176.996 40.2694 177.507 40.2694C178.052 40.2694 178.494 40.1363 178.835 39.9033C179.176 39.6704 179.346 39.3376 179.312 38.8716C179.312 38.5388 179.21 38.2726 179.039 38.1062C178.937 38.0063 178.733 37.8732 178.46 37.7734ZM182.684 35.71C182.037 35.71 181.458 35.9429 181.015 36.3756C180.538 36.8415 180.334 37.374 180.334 38.0063C180.334 38.6387 180.572 39.2044 181.015 39.6371C181.492 40.103 182.037 40.3027 182.684 40.3027C183.331 40.3027 183.91 40.0697 184.353 39.6371C184.83 39.1712 185.034 38.6387 185.034 38.0063C185.034 37.374 184.796 36.8082 184.353 36.3756C183.91 35.9097 183.331 35.71 182.684 35.71ZM183.74 39.0713C183.468 39.3376 183.127 39.504 182.684 39.504C182.275 39.504 181.901 39.3708 181.628 39.0713C181.356 38.7718 181.185 38.439 181.185 38.0396C181.185 37.6403 181.322 37.2742 181.594 37.0079C181.867 36.7417 182.241 36.5753 182.65 36.5753C183.059 36.5753 183.434 36.7084 183.706 37.0079C183.979 37.2742 184.115 37.6403 184.115 38.0396C184.149 38.439 184.013 38.7718 183.74 39.0713ZM186.056 40.2694H186.976V33.9794H186.056V40.2694ZM191.234 38.1395C191.234 39.038 190.859 39.504 190.11 39.504C189.36 39.504 188.986 39.0713 188.986 38.1395V35.7765H188.066V38.1395C188.066 38.8716 188.236 39.4374 188.611 39.8035C188.986 40.1696 189.463 40.3693 190.076 40.3693C190.689 40.3693 191.166 40.1696 191.54 39.8035C191.915 39.4374 192.085 38.8716 192.085 38.1395V35.7765H191.166V38.1395H191.234ZM194.64 34.1458H193.755V35.7433H193.073V36.6086H193.755V38.1395C193.755 38.8383 193.925 39.3708 194.265 39.7036C194.606 40.0697 195.049 40.2361 195.662 40.2694V39.4041C195.015 39.3376 194.674 38.9049 194.674 38.1062V36.6086H195.662V35.7433H194.674V34.1458H194.64ZM196.65 40.2694H197.57V35.7765H196.65V40.2694ZM197.093 34.0792C196.922 34.0792 196.786 34.1458 196.684 34.2456C196.582 34.3455 196.514 34.4786 196.514 34.645C196.514 34.7781 196.582 34.9113 196.684 35.0111C196.786 35.1109 196.922 35.1775 197.093 35.1775C197.229 35.1775 197.365 35.1109 197.467 35.0111C197.57 34.9113 197.638 34.7781 197.638 34.645C197.638 34.4786 197.604 34.3788 197.467 34.2456C197.399 34.1125 197.263 34.0792 197.093 34.0792ZM201.01 35.71C200.363 35.71 199.784 35.9429 199.341 36.3756C198.864 36.8415 198.66 37.374 198.66 38.0063C198.66 38.6387 198.898 39.2044 199.341 39.6371C199.818 40.103 200.363 40.3027 201.01 40.3027C201.657 40.3027 202.236 40.0697 202.679 39.6371C203.156 39.1712 203.36 38.6387 203.36 38.0063C203.36 37.374 203.122 36.8082 202.679 36.3756C202.236 35.9097 201.657 35.71 201.01 35.71ZM202.066 39.0713C201.793 39.3376 201.453 39.504 201.01 39.504C200.601 39.504 200.226 39.3708 199.954 39.0713C199.681 38.7718 199.511 38.439 199.511 38.0396C199.511 37.6403 199.647 37.2742 199.92 37.0079C200.192 36.7417 200.567 36.5753 200.976 36.5753C201.385 36.5753 201.759 36.7084 202.032 37.0079C202.304 37.2742 202.441 37.6403 202.441 38.0396C202.475 38.439 202.338 38.7718 202.066 39.0713ZM206.426 35.71C205.813 35.71 205.336 35.9097 204.961 36.2758C204.586 36.6418 204.416 37.2076 204.416 37.9398V40.3027H205.336V37.9398C205.336 37.0412 205.711 36.5753 206.46 36.5753C207.209 36.5753 207.584 37.0079 207.584 37.9398V40.3027H208.504V37.9398C208.504 37.2076 208.333 36.6418 207.959 36.2758C207.516 35.8764 207.039 35.71 206.426 35.71ZM212.046 37.7734C211.774 37.7068 211.535 37.6403 211.263 37.5737C210.99 37.5404 210.786 37.4739 210.616 37.374C210.445 37.2742 210.343 37.1743 210.343 37.0079C210.343 36.8415 210.411 36.7084 210.547 36.6086C210.684 36.5087 210.888 36.4422 211.092 36.4422C211.331 36.4422 211.535 36.5087 211.672 36.6086C211.842 36.7084 211.91 36.8415 211.91 37.0079H212.762C212.762 36.5753 212.591 36.2425 212.285 36.0095C211.978 35.7765 211.569 35.6434 211.058 35.6434C210.582 35.6434 210.173 35.7765 209.832 36.0095C209.492 36.2425 209.355 36.542 209.355 36.9081C209.355 37.2409 209.457 37.5071 209.628 37.6735C209.798 37.8732 210.037 38.0063 210.275 38.0729C210.547 38.1395 210.786 38.206 211.058 38.2393C211.331 38.3059 211.535 38.3724 211.706 38.4723C211.876 38.5721 211.978 38.7052 211.978 38.9049C211.978 39.0713 211.91 39.2377 211.74 39.3376C211.569 39.4374 211.365 39.504 211.092 39.504C210.82 39.504 210.582 39.4374 210.411 39.3376C210.241 39.2377 210.139 39.0713 210.139 38.8716H209.287C209.287 39.3043 209.457 39.6704 209.798 39.9033C210.139 40.1696 210.582 40.2694 211.092 40.2694C211.637 40.2694 212.08 40.1363 212.421 39.9033C212.762 39.6704 212.932 39.3376 212.898 38.8716C212.898 38.5388 212.796 38.2726 212.625 38.1062C212.523 38.0063 212.319 37.8732 212.046 37.7734Z" fill="#333333"/>
</g>
<defs>
<clipPath id="clip0_1307_4384">
<rect width="213" height="42" fill="white"/>
</clipPath>
</defs>
</svg>
