<svg width="40" height="40" viewBox="0 0 40 40" fill="none" xmlns="http://www.w3.org/2000/svg">
<path fill-rule="evenodd" clip-rule="evenodd" d="M20 0C8.94118 0 0 8.94118 0 20C0 31.0252 8.94118 40 20 40C31.0252 40 40 31.0588 40 20C39.9664 8.94118 31.0252 0 20 0ZM29.479 29.479H24.7395V20C24.7395 19.3277 24.605 18.7227 24.3697 18.1513C24.1008 17.5798 23.7647 17.0756 23.3613 16.6387C22.9244 16.2017 22.4202 15.8655 21.8487 15.6303C21.2773 15.3613 20.6723 15.2605 20 15.2605C19.3277 15.2605 18.7227 15.395 18.1513 15.6303C17.5798 15.8992 17.0756 16.2353 16.6387 16.6387C16.2017 17.0756 15.8655 17.5798 15.6303 18.1513C15.3613 18.7227 15.2605 19.3277 15.2605 20C15.2605 20.6723 15.395 21.2773 15.6303 21.8487C15.8992 22.4202 16.2353 22.9244 16.6387 23.3613C17.0756 23.7983 17.5798 24.1345 18.1513 24.3697C18.7227 24.6387 19.3277 24.7395 20 24.7395V29.479C18.6891 29.479 17.4454 29.2437 16.3025 28.7395C15.1597 28.2353 14.1513 27.563 13.2773 26.7227C12.4034 25.8487 11.7311 24.874 11.2605 23.6975C10.7563 22.5546 10.521 21.3109 10.521 20C10.521 18.6891 10.7563 17.4454 11.2605 16.3025C11.7647 15.1597 12.437 14.1513 13.2773 13.2773C14.1513 12.4034 15.1261 11.7311 16.3025 11.2605C17.4454 10.7563 18.6891 10.521 20 10.521C21.3109 10.521 22.5546 10.7563 23.6975 11.2605C24.8403 11.7647 25.8487 12.437 26.7227 13.2773C27.5966 14.1513 28.2689 15.1597 28.7395 16.3025C29.2437 17.4454 29.479 18.6891 29.479 20V29.479Z" fill="#DB1F26"/>
</svg>
